<mxfile host="app.diagrams.net" modified="2022-09-09T06:20:56.415Z" agent="5.0 (Macintosh; Intel Mac OS X 10_15_7) AppleWebKit/605.1.15 (KHTML, like Gecko) Version/15.6.1 Safari/605.1.15" etag="9f6sbUCBIj3q-hzzzchy" version="20.2.5" type="github" pages="7">
  <diagram id="0p66evK3KQyWrLIiFkVj" name="第 1 页">
    <mxGraphModel dx="1368" dy="828" grid="1" gridSize="10" guides="1" tooltips="1" connect="1" arrows="1" fold="1" page="1" pageScale="1" pageWidth="850" pageHeight="1100" math="0" shadow="0">
      <root>
        <mxCell id="0" />
        <mxCell id="1" parent="0" />
        <mxCell id="0v4dfemv-sSP0eo9Y8xd-1" value="" style="triangle;whiteSpace=wrap;html=1;rotation=-90;" vertex="1" parent="1">
          <mxGeometry x="280" y="150" width="320" height="280" as="geometry" />
        </mxCell>
        <mxCell id="0v4dfemv-sSP0eo9Y8xd-4" value="" style="endArrow=none;html=1;rounded=0;entryX=0.563;entryY=0.714;entryDx=0;entryDy=0;entryPerimeter=0;" edge="1" parent="1" target="0v4dfemv-sSP0eo9Y8xd-1">
          <mxGeometry width="50" height="50" relative="1" as="geometry">
            <mxPoint x="380" y="270" as="sourcePoint" />
            <mxPoint x="450" y="270" as="targetPoint" />
          </mxGeometry>
        </mxCell>
        <mxCell id="0v4dfemv-sSP0eo9Y8xd-5" value="" style="endArrow=none;html=1;rounded=0;entryX=0.281;entryY=0.857;entryDx=0;entryDy=0;entryPerimeter=0;" edge="1" parent="1" target="0v4dfemv-sSP0eo9Y8xd-1">
          <mxGeometry width="50" height="50" relative="1" as="geometry">
            <mxPoint x="340" y="360.15999999999997" as="sourcePoint" />
            <mxPoint x="470" y="360" as="targetPoint" />
          </mxGeometry>
        </mxCell>
        <mxCell id="0v4dfemv-sSP0eo9Y8xd-6" value="&lt;font style=&quot;font-size: 16px;&quot;&gt;SaaS&lt;/font&gt;" style="text;html=1;strokeColor=none;fillColor=none;align=center;verticalAlign=middle;whiteSpace=wrap;rounded=0;" vertex="1" parent="1">
          <mxGeometry x="410" y="220" width="60" height="30" as="geometry" />
        </mxCell>
        <mxCell id="0v4dfemv-sSP0eo9Y8xd-7" value="&lt;font style=&quot;font-size: 16px;&quot;&gt;PaaS&lt;br&gt;&lt;/font&gt;" style="text;html=1;strokeColor=none;fillColor=none;align=center;verticalAlign=middle;whiteSpace=wrap;rounded=0;" vertex="1" parent="1">
          <mxGeometry x="410" y="300" width="60" height="30" as="geometry" />
        </mxCell>
        <mxCell id="0v4dfemv-sSP0eo9Y8xd-8" value="&lt;font style=&quot;font-size: 16px;&quot;&gt;IaaS&lt;br&gt;&lt;/font&gt;" style="text;html=1;strokeColor=none;fillColor=none;align=center;verticalAlign=middle;whiteSpace=wrap;rounded=0;" vertex="1" parent="1">
          <mxGeometry x="410" y="390" width="60" height="30" as="geometry" />
        </mxCell>
      </root>
    </mxGraphModel>
  </diagram>
  <diagram id="reZZUNZ57k5iSzyXUZLD" name="第 2 页">
    <mxGraphModel dx="1368" dy="828" grid="1" gridSize="10" guides="1" tooltips="1" connect="1" arrows="1" fold="1" page="1" pageScale="1" pageWidth="850" pageHeight="1100" math="0" shadow="0">
      <root>
        <mxCell id="0" />
        <mxCell id="1" parent="0" />
        <mxCell id="jRxCpBCNterzTvOrL26a-11" value="" style="group" vertex="1" connectable="0" parent="1">
          <mxGeometry x="270" y="310" width="750" height="400" as="geometry" />
        </mxCell>
        <mxCell id="jRxCpBCNterzTvOrL26a-19" value="API" style="rounded=0;whiteSpace=wrap;html=1;fontSize=16;" vertex="1" parent="jRxCpBCNterzTvOrL26a-11">
          <mxGeometry x="480" y="25" width="50" height="70" as="geometry" />
        </mxCell>
        <mxCell id="jRxCpBCNterzTvOrL26a-12" value="" style="rounded=0;whiteSpace=wrap;html=1;fontSize=16;" vertex="1" parent="jRxCpBCNterzTvOrL26a-11">
          <mxGeometry width="630" height="120" as="geometry" />
        </mxCell>
        <mxCell id="jRxCpBCNterzTvOrL26a-20" value="PaaS" style="text;html=1;strokeColor=none;fillColor=none;align=center;verticalAlign=middle;whiteSpace=wrap;rounded=0;fontSize=16;" vertex="1" parent="jRxCpBCNterzTvOrL26a-11">
          <mxGeometry x="550" y="45" width="60" height="30" as="geometry" />
        </mxCell>
        <mxCell id="jRxCpBCNterzTvOrL26a-21" value="" style="shape=image;verticalLabelPosition=bottom;labelBackgroundColor=default;verticalAlign=top;aspect=fixed;imageAspect=0;image=data:image/png,iVBORw0KGgoAAAANSUhEUgAAATsAAACgCAMAAABE1DvBAAAA2FBMVEX///8AAAAkU/8sLCz8/PzKysoVTP8JSP/Dw8OzwP8gUf/09PS3t7fo6OgUFBR/f38AP/+Kioo2Yf9DQ0PS0tKQkJCWqf9fX18ARf9kZGSXl5f3+f8AQv/e5P9NTU1ISEjh4eHj6f8hISGjsf+rq6tVVVU6OjqEhITz9v/u7u7Q0NClpaXj4+Ozs7MzMzNsbGwbGxtqhf8sWf+7x/92dnbFz//P1/+puP+Gmv9YeP/s8P+Nof98k/9Mbv/Z3/+Blv81YP9gff9DaP9Rc//M1f9zjP8ANf9ee//9DWZKAAAM00lEQVR4nO2caXvaOhOGDRjbMUvShoYlGyGQxoRAtjZtkqZp2r7n//+jF5vFMyPJMsLYppeeL+c0lmX5lkYzGskYxnbp9nzdGu5vD5NoyPbpW+voeL0aDo9af5Npy5bp6ahoH6xXxX2ruLcm/u3UuV10f69XxYtVtL4l05rt0g+36FrrVfF7WsVdMq3ZKj21isVia72p/t0tFu3XhBq0RfoSsHtap4rLO5/dY1It2h5Np7spu7N1qgjYWT+TatH26K+VzLhzvyfVogT1emttQncHl0H1/lxVdD/G1Nvv569MC2fsimmDketry3I3IvsugOf67Irxb7OOfl2SJgbsikf0z5nLtIN324Rsfy1wbK98n2URC3/yzb7Y+pIJoAj9tBJntpBrTSOTP63Vb7RIKP01qCN3jvbPUdLEgPbO5m52VR3do0YG7iZ/jvZuYxY7lX0ZLKdWl3UL23g26991F3ZJ61llVMSV+9EMllMKd0Kfevk2qyJnq7JXhckovvzRYxaVBvYeaOPSNKy1Auyk9XGTFlu0noMElIqm7A5fX1+PX3duj5ZtbLGRX3Y62KTFTqe7nflqdnXt+bOc7QtMl3lytAqh10ryMx+Pas/w2TFOJk8pvB8btdiZm1Uc2nx2L1kTW0op8lpBgbP8N8fd2UZ97FTur+lTjpV9BcuudS99qZT0fXOLsZl8N6v6GB479y4v+4yPmx52gZudBilFFXgcdq6dlxDlaXPpk4Vm7Iyn7y0bqyV/dBijLG96z81+xa9NWyyY2o8fD6B2vr5K4U3ZXaKbHnNDztjZuMX6KShRsvJZ2nF7gjtzoEtr4xZb9NNw/F2KA3nH5Zjd7eYt1pdlvewwOv8YI+TLLzvFRebqci2bVZwhn1t2JrTYNIx3deWWHUjlutZtLuHlld2XcJlkvT3db3hVq6a8sgu3KFq/Do0dzS6+vi1guS3/RKFmF1+Hi2Hn2sFesWa3gubTnf0+2znR7FbReXAg7q85+1cW7OSrmryyM15st7U8tZ8BO/v5XQYvt+yM/+7CVFj67Ky/8r3N/LKDSp2dW7zU7BTlp+I1OzW1/mh2qjo60+xUpdmpS7NTl2anLs1OXZqdujQ7dWl26tLs1KXZqctnJ81B2VljiaVM2MnOJeTtMxSBMmF3LzkN2srRifYIpc/O/7GO6AnPfTOzxhJLmeSgjOOoUynuXn4O20Uqk9yn/6WTLf5mOS+HY2WKwY57mim+6Lnh2efch+fvfHTvB3k5ki2VnJ319syeoouvxxdin+EnJoccZcliVUnZ2X/XfZ9X8pFua81fh8qNZOzcH+s/45WEJK3bf+OHsWTs7CQ+pqEfIFv2+8s50JYORCm7JIbIAbOOwP7nf9sRz1Glw07ykD3NTijNTl2anbo0O3VpdurS7NSl2alLs1OXZqcuzU5dmp26NDt1aXbq0uzUpdmpS7NTl2anrn+UneQ3K1z6O81KkvySWx5/bjyOzOhfZ7L+S+IhZ9E/7GHn7ZeL4+r+SHygy7XdZH7b9XFPDM+133L3S+1x9frL3hPI/ZmExfr68rslekjxeWvRaWlpaWlpaWlpaWlpaWlpaWlpaWlpSVSpjbqjmpfLba9ao+b/xyxz1RhVJPcPYXG2cKMKdF2jl71r8TWj4nQG45tCoN540HEwQNOBDaUVw2aN8KNE8puA7oMcOJ3XbF41J347C0KNd6tigB4q+om5/oCuD+jlYXjNIeCu9tmmtMugRA01klRchRc/+38pi99woaphOOKr7Q7uoEnf6dT6u9Om1iNr3R0J2F2jYiXm+i6uZ0guN8JLiF3lg6AhvWs+u31SMWLwIRF2U910wuFn9oxB+cIoSdnxhlSgAS5FTYeyo68oYFctiHXqZcduqmXf1UpGc+wYvYqcXaHHTkisqX+QsKOWyWc3iW5JN0t2hcniEaXKQ/mTeRFj3E3Fsds+KdKTsbuIwY6MZVbdLNkVmvNHVC+6RvdiGI9dnfU1p7QMNVrKzm+fhN2JvCWVLNkVHhaNb59O/G6Mw25501I1pgg1WoYdHpkcdswdooZkxo4JCeKwK3RJC6+YEtTTsiT60ew4bmI8Zv7UyJRdQYXdZ9JCjnkRo2XZIctn2JmkdO+qVjHNSoPELA/ZssMDD7EreRVfXtehHg830CuwIng5FtiJYvcZlw0jowr2IGuyO2nwVg8evc8MONQa/QvcrAl6FmZn8ttAjZZ62cVbRbMrgFUKZUd6A9k3an95PXZtQyB0H4hpcZ+WkNcUsSPzD/aSjJf1hY2Wxw40ibLroIJ4DHfhpU7K7IwmapkH7xGyM3qi2kDjoT3tStmBJ1N2N7BYicREsKsmabNDPYcHiJgdmqVRlBJ62atSWKSH3pjLLsRL2DVQMWSxBh6Ug7TZ4SkDL76F7FAcgibJMNHhwBGN1vv8aG25QiHsPqFSNBSH73WaOjvkq9DcJWaHMiVw3IF53YMvjYyWz27ZBYTdCbfQQvDt02eHJjyYC4tgh6ZvGF+EA/LGRB5Xzq7Q5bLDmYVrgwhadPo2i/oV5UXE7NrwHmjn4dQ9wBMVNNqQHXLKi/U0Zofn465BVMYVpMsO9ytKBgvZCe8ZhX/t4LgMGnbI7gMa9EMeOzR6b5jMwyxcqpdOB+2HatrsUNtw/lvIDr0xbCHwIUMcP0BPG7KboEhxn8cOTQ8kWzXVsO90a15lUTtiV+pgoQVRAuxw0H4Vh52Hw19osiAsMchrg5k0ZHdicKrC7NALNw2J2CSOSCy7i84nok4kO7IYxg3hsKs1qm18Cxx2oOW+Q0RTFTDaXXAzWtfsc9ihjsIxdsLsWNVF7CqjMt126uCGxMqjdMENYKAFwQ5afvDYlYgrqLLsUK6JNHDT7HocdgLR2SQOOxTng64IllgorA1tO2R3U8Fz5w3LrgSv01VFfth1V2eHBgLwsjOnIzBaEN95ZOD1GXY9ejmX7BzaEDk77FuAyc5jWDRols4GsKsRZ+C74+1jV2e2UaXseuQWQGoe86GcwbJvMLsRLOP3RoTN4r7KC7s254hENLsxXR8B61vEiWhpsVyLAnZ+AgC52vrW+YoTeq5Bzo59DWCyy/GBalgYLWGHVykO7AOHpHmYbfLs2bHmKmfH3gTecrks5hotYYczWifw/R2S5mHSKJHs6oMTJLYbFOI7qjH/JJtkvvNwaTBvhcHOEN6weHPKzkSZ4REYhw5JujBnpiLZnZKLkvVss1KjisFOsNZB7HpOuXyNnB55EWCywB3yPC32FQbZ/9gFhu6QQUlPhUWz20guYDIsl3E6luv88Zos+AuCh4MaQOkhXBHystIMOwOtb0BY4pA0a112ajKlPAoeibxGcdazyHGi/X4c4/LVZtjNE+3ItJ2Qtzx/Z3iTz51+uTvy0mSH53GeB+PlUdCZTZihx+NYoAplt3AqcGXWDLOxTN6YtY9lIqg33h+lxg5P0bL4bs4O5axg49jzIRxVRewEo9Y3cmTPrKP1QCMb6eU+UdqTE7Jz83fI74VhYRyTXTSPw06wh+Gzw7vvTEQAaaXIDkWu9ZjsEKTQ1cYy2fmrs/Md/xjLjB2OwZjNHni5liI7lNhlpxJ+3hjZ0DIbjBywWFXCLtxb6vCKB44Z/YU5+Q1TCV6K7FBnsyc4+exQTYtXiWey80CSN+4MkxeIO6R4gVkLwlcYp7rXg/I/TEKbz85EQ2yelRMd32fkGYJxR74smMnh9AuKKk0YPz6kyg7FVeRAk3CvB1vXjDhaPkSpKmTHM/sZJ3JOG0x5lX1Seh12wsWyYK8HvzOZiAXs6DHMD9UqHHbMo1EHNcXsOAtzZuNsVsdwFlB1iXM21mPXazc5GtRE7MhJ3lKnehX6DNH+LDmHicXZykLXK4L5zuCdtp3bJ/NtRe+k2T6lY72/JjuBusL9WdbYwn0FEbuI78zIiZaZ0FrkWsyOdThOjAcuFJBKlR17hDx0ZMJzAexR9qV4q3X07IGYndGmtS38ArVa/jumzc64oGVDjxHz3CcSb8LF4YcnZsdkfZc+NepjMtjsdNkxXRqus8TsxOEcs9nmCxltX8yOCXXC2mTw+hz6G2fHBPTdGOzEr8LNQKOHn0Swoy4c9ETjphChxSybMjvqxcJUegQ7UR5acNgGlTEFMYovMpPCUWzy0wW+HpZtS5sdiTnCv0exM7rMROmLWarPhLrnGjyPfgaJFy1kBmgwviRQ8O1bVuzQcgjkUyrjUqh9xhrLk1nODhTqebTQvNV1UGbyqbf4/xvm+1vn4jTUBQ14vCsaAw76yLHXYGvozhBqRRBODMFfBKqPjDJzH5TZHwQdXh834cgxoXhMvFqt5skKsTXJy4tV6fY7u+3BSdPPtTeYiCiyyew1U64YHEx/Tw015f9+xlrzLBdX0AAAAABJRU5ErkJggg==;" vertex="1" parent="jRxCpBCNterzTvOrL26a-11">
          <mxGeometry x="20" y="35" width="98.44" height="50" as="geometry" />
        </mxCell>
        <mxCell id="jRxCpBCNterzTvOrL26a-23" value="" style="shape=image;verticalLabelPosition=bottom;labelBackgroundColor=default;verticalAlign=top;aspect=fixed;imageAspect=0;image=https://upload.wikimedia.org/wikipedia/commons/thumb/a/a8/Microsoft_Azure_Logo.svg/1200px-Microsoft_Azure_Logo.svg.png;" vertex="1" parent="jRxCpBCNterzTvOrL26a-11">
          <mxGeometry x="140" y="35" width="156" height="45" as="geometry" />
        </mxCell>
        <mxCell id="jRxCpBCNterzTvOrL26a-24" value="" style="shape=image;verticalLabelPosition=bottom;labelBackgroundColor=default;verticalAlign=top;aspect=fixed;imageAspect=0;image=https://www.freecodecamp.org/news/content/images/2020/10/gcp.png;" vertex="1" parent="jRxCpBCNterzTvOrL26a-11">
          <mxGeometry x="260" y="7" width="200.55" height="113" as="geometry" />
        </mxCell>
        <mxCell id="jRxCpBCNterzTvOrL26a-72" value="API" style="rounded=0;whiteSpace=wrap;html=1;fontSize=16;" vertex="1" parent="jRxCpBCNterzTvOrL26a-11">
          <mxGeometry x="480" y="22.5" width="50" height="70" as="geometry" />
        </mxCell>
        <mxCell id="jRxCpBCNterzTvOrL26a-71" value="" style="group;glass=1;fillColor=default;fillStyle=hatch;textOpacity=0;" vertex="1" connectable="0" parent="jRxCpBCNterzTvOrL26a-11">
          <mxGeometry x="660" y="-130" width="90" height="530" as="geometry" />
        </mxCell>
        <mxCell id="jRxCpBCNterzTvOrL26a-10" value="" style="group" vertex="1" connectable="0" parent="1">
          <mxGeometry x="270" y="170" width="630" height="120" as="geometry" />
        </mxCell>
        <mxCell id="jRxCpBCNterzTvOrL26a-1" value="" style="rounded=0;whiteSpace=wrap;html=1;fontSize=16;" vertex="1" parent="jRxCpBCNterzTvOrL26a-10">
          <mxGeometry width="630" height="120" as="geometry" />
        </mxCell>
        <mxCell id="jRxCpBCNterzTvOrL26a-2" value="Application" style="rounded=0;whiteSpace=wrap;html=1;fontSize=16;" vertex="1" parent="jRxCpBCNterzTvOrL26a-10">
          <mxGeometry x="10" y="14" width="410" height="40" as="geometry" />
        </mxCell>
        <mxCell id="jRxCpBCNterzTvOrL26a-3" value="ERP" style="rounded=0;whiteSpace=wrap;html=1;fontSize=16;" vertex="1" parent="jRxCpBCNterzTvOrL26a-10">
          <mxGeometry x="10" y="70" width="80" height="40" as="geometry" />
        </mxCell>
        <mxCell id="jRxCpBCNterzTvOrL26a-4" value="ERP" style="rounded=0;whiteSpace=wrap;html=1;fontSize=16;" vertex="1" parent="jRxCpBCNterzTvOrL26a-10">
          <mxGeometry x="100" y="70" width="80" height="40" as="geometry" />
        </mxCell>
        <mxCell id="jRxCpBCNterzTvOrL26a-5" value="ERP" style="rounded=0;whiteSpace=wrap;html=1;fontSize=16;" vertex="1" parent="jRxCpBCNterzTvOrL26a-10">
          <mxGeometry x="190" y="70" width="80" height="40" as="geometry" />
        </mxCell>
        <mxCell id="jRxCpBCNterzTvOrL26a-6" value="ERP" style="rounded=0;whiteSpace=wrap;html=1;fontSize=16;" vertex="1" parent="jRxCpBCNterzTvOrL26a-10">
          <mxGeometry x="280" y="70" width="80" height="40" as="geometry" />
        </mxCell>
        <mxCell id="jRxCpBCNterzTvOrL26a-7" value="..." style="rounded=0;whiteSpace=wrap;html=1;fontSize=16;" vertex="1" parent="jRxCpBCNterzTvOrL26a-10">
          <mxGeometry x="370" y="70" width="50" height="40" as="geometry" />
        </mxCell>
        <mxCell id="jRxCpBCNterzTvOrL26a-8" value="API" style="rounded=0;whiteSpace=wrap;html=1;fontSize=16;" vertex="1" parent="jRxCpBCNterzTvOrL26a-10">
          <mxGeometry x="480" y="25" width="50" height="70" as="geometry" />
        </mxCell>
        <mxCell id="jRxCpBCNterzTvOrL26a-9" value="SaaS" style="text;html=1;strokeColor=none;fillColor=none;align=center;verticalAlign=middle;whiteSpace=wrap;rounded=0;fontSize=16;" vertex="1" parent="jRxCpBCNterzTvOrL26a-10">
          <mxGeometry x="550" y="45" width="60" height="30" as="geometry" />
        </mxCell>
        <mxCell id="jRxCpBCNterzTvOrL26a-25" value="" style="group;shadow=0;" vertex="1" connectable="0" parent="1">
          <mxGeometry x="270" y="450" width="630" height="140" as="geometry" />
        </mxCell>
        <mxCell id="jRxCpBCNterzTvOrL26a-26" value="" style="rounded=0;whiteSpace=wrap;html=1;fontSize=16;strokeWidth=2;fillStyle=hatch;" vertex="1" parent="jRxCpBCNterzTvOrL26a-25">
          <mxGeometry width="630" height="120" as="geometry" />
        </mxCell>
        <mxCell id="jRxCpBCNterzTvOrL26a-27" value="API" style="rounded=0;whiteSpace=wrap;html=1;fontSize=16;" vertex="1" parent="jRxCpBCNterzTvOrL26a-25">
          <mxGeometry x="480" y="25" width="50" height="70" as="geometry" />
        </mxCell>
        <mxCell id="jRxCpBCNterzTvOrL26a-28" value="DBaaS" style="text;html=1;strokeColor=none;fillColor=none;align=center;verticalAlign=middle;whiteSpace=wrap;rounded=0;fontSize=16;" vertex="1" parent="jRxCpBCNterzTvOrL26a-25">
          <mxGeometry x="550" y="45" width="60" height="30" as="geometry" />
        </mxCell>
        <mxCell id="jRxCpBCNterzTvOrL26a-32" value="Resource" style="rounded=0;whiteSpace=wrap;html=1;fontSize=16;strokeWidth=1;" vertex="1" parent="jRxCpBCNterzTvOrL26a-25">
          <mxGeometry x="20" y="28" width="100" height="60" as="geometry" />
        </mxCell>
        <mxCell id="jRxCpBCNterzTvOrL26a-33" value="Task" style="rounded=0;whiteSpace=wrap;html=1;fontSize=16;strokeWidth=1;" vertex="1" parent="jRxCpBCNterzTvOrL26a-25">
          <mxGeometry x="132" y="28" width="70" height="60" as="geometry" />
        </mxCell>
        <mxCell id="jRxCpBCNterzTvOrL26a-40" value="Report" style="rounded=0;whiteSpace=wrap;html=1;fontSize=16;strokeWidth=1;" vertex="1" parent="jRxCpBCNterzTvOrL26a-25">
          <mxGeometry x="218" y="28" width="70" height="60" as="geometry" />
        </mxCell>
        <mxCell id="jRxCpBCNterzTvOrL26a-41" value="Schedule" style="rounded=0;whiteSpace=wrap;html=1;fontSize=16;strokeWidth=1;" vertex="1" parent="jRxCpBCNterzTvOrL26a-25">
          <mxGeometry x="303" y="28" width="77" height="60" as="geometry" />
        </mxCell>
        <mxCell id="jRxCpBCNterzTvOrL26a-52" value="..." style="rounded=0;whiteSpace=wrap;html=1;fontSize=16;strokeWidth=1;" vertex="1" parent="jRxCpBCNterzTvOrL26a-25">
          <mxGeometry x="390" y="28" width="50" height="62" as="geometry" />
        </mxCell>
        <mxCell id="jRxCpBCNterzTvOrL26a-53" value="" style="group" vertex="1" connectable="0" parent="1">
          <mxGeometry x="270" y="590" width="630" height="120" as="geometry" />
        </mxCell>
        <mxCell id="jRxCpBCNterzTvOrL26a-54" value="" style="rounded=0;whiteSpace=wrap;html=1;fontSize=16;" vertex="1" parent="jRxCpBCNterzTvOrL26a-53">
          <mxGeometry width="630" height="120" as="geometry" />
        </mxCell>
        <mxCell id="jRxCpBCNterzTvOrL26a-61" value="API" style="rounded=0;whiteSpace=wrap;html=1;fontSize=16;" vertex="1" parent="jRxCpBCNterzTvOrL26a-53">
          <mxGeometry x="480" y="25" width="50" height="70" as="geometry" />
        </mxCell>
        <mxCell id="jRxCpBCNterzTvOrL26a-62" value="SaaS" style="text;html=1;strokeColor=none;fillColor=none;align=center;verticalAlign=middle;whiteSpace=wrap;rounded=0;fontSize=16;" vertex="1" parent="jRxCpBCNterzTvOrL26a-53">
          <mxGeometry x="550" y="45" width="60" height="30" as="geometry" />
        </mxCell>
        <mxCell id="jRxCpBCNterzTvOrL26a-63" value="Compute" style="rounded=0;whiteSpace=wrap;html=1;fontSize=16;" vertex="1" parent="jRxCpBCNterzTvOrL26a-53">
          <mxGeometry x="20" y="30" width="100" height="60" as="geometry" />
        </mxCell>
        <mxCell id="jRxCpBCNterzTvOrL26a-64" value="Network" style="rounded=0;whiteSpace=wrap;html=1;fontSize=16;" vertex="1" parent="jRxCpBCNterzTvOrL26a-53">
          <mxGeometry x="170" y="30" width="100" height="60" as="geometry" />
        </mxCell>
        <mxCell id="jRxCpBCNterzTvOrL26a-65" value="Storage" style="rounded=0;whiteSpace=wrap;html=1;fontSize=16;" vertex="1" parent="jRxCpBCNterzTvOrL26a-53">
          <mxGeometry x="310" y="30" width="100" height="60" as="geometry" />
        </mxCell>
        <mxCell id="jRxCpBCNterzTvOrL26a-66" value="" style="rounded=0;whiteSpace=wrap;html=1;fontSize=16;dashed=1;fillColor=none;" vertex="1" parent="1">
          <mxGeometry x="730" y="180" width="90" height="520" as="geometry" />
        </mxCell>
      </root>
    </mxGraphModel>
  </diagram>
  <diagram id="P0DgB_H_OV0Y3aeTWlTv" name="第 3 页">
    <mxGraphModel dx="1990" dy="690" grid="1" gridSize="10" guides="1" tooltips="1" connect="1" arrows="1" fold="1" page="1" pageScale="1" pageWidth="850" pageHeight="1100" math="0" shadow="0">
      <root>
        <mxCell id="0" />
        <mxCell id="1" parent="0" />
        <mxCell id="oeZgPJDQ6QQvf6BXIIXQ-1" value="&lt;font style=&quot;font-size: 12px;&quot;&gt;VUE&lt;/font&gt;" style="rounded=0;whiteSpace=wrap;html=1;shadow=0;glass=1;fillStyle=hatch;fontSize=12;strokeWidth=1;fillColor=none;" vertex="1" parent="1">
          <mxGeometry x="180" y="220" width="140" height="30" as="geometry" />
        </mxCell>
        <mxCell id="oeZgPJDQ6QQvf6BXIIXQ-3" value="&lt;font style=&quot;font-size: 12px;&quot;&gt;NodeJS&lt;/font&gt;" style="rounded=0;whiteSpace=wrap;html=1;shadow=0;glass=1;fillStyle=hatch;fontSize=12;strokeWidth=1;fillColor=none;" vertex="1" parent="1">
          <mxGeometry x="180" y="250" width="140" height="30" as="geometry" />
        </mxCell>
        <mxCell id="oeZgPJDQ6QQvf6BXIIXQ-4" value="&lt;font style=&quot;font-size: 12px;&quot;&gt;ElementUI&amp;nbsp;&lt;/font&gt;" style="rounded=0;whiteSpace=wrap;html=1;shadow=0;glass=1;fillStyle=hatch;fontSize=12;strokeWidth=1;fillColor=none;" vertex="1" parent="1">
          <mxGeometry x="180" y="280" width="140" height="40" as="geometry" />
        </mxCell>
        <mxCell id="oeZgPJDQ6QQvf6BXIIXQ-5" value="Web前端" style="rounded=0;whiteSpace=wrap;html=1;shadow=0;glass=1;fillStyle=hatch;fontSize=12;strokeWidth=1;fillColor=none;" vertex="1" parent="1">
          <mxGeometry x="320" y="220" width="70" height="100" as="geometry" />
        </mxCell>
        <mxCell id="oeZgPJDQ6QQvf6BXIIXQ-14" value="" style="group" vertex="1" connectable="0" parent="1">
          <mxGeometry x="430" y="220" width="210" height="100" as="geometry" />
        </mxCell>
        <mxCell id="oeZgPJDQ6QQvf6BXIIXQ-7" value="后台管控" style="rounded=0;whiteSpace=wrap;html=1;shadow=0;glass=1;fillStyle=hatch;fontSize=12;strokeWidth=1;fillColor=none;" vertex="1" parent="oeZgPJDQ6QQvf6BXIIXQ-14">
          <mxGeometry width="70" height="100" as="geometry" />
        </mxCell>
        <mxCell id="oeZgPJDQ6QQvf6BXIIXQ-8" value="MQ" style="rounded=0;whiteSpace=wrap;html=1;shadow=0;glass=1;fillStyle=hatch;fontSize=12;strokeWidth=1;fillColor=none;" vertex="1" parent="oeZgPJDQ6QQvf6BXIIXQ-14">
          <mxGeometry x="70" width="140" height="20" as="geometry" />
        </mxCell>
        <mxCell id="oeZgPJDQ6QQvf6BXIIXQ-9" value="Redis" style="rounded=0;whiteSpace=wrap;html=1;shadow=0;glass=1;fillStyle=hatch;fontSize=12;strokeWidth=1;fillColor=none;" vertex="1" parent="oeZgPJDQ6QQvf6BXIIXQ-14">
          <mxGeometry x="70" y="20" width="140" height="20" as="geometry" />
        </mxCell>
        <mxCell id="oeZgPJDQ6QQvf6BXIIXQ-10" value="ES" style="rounded=0;whiteSpace=wrap;html=1;shadow=0;glass=1;fillStyle=hatch;fontSize=12;strokeWidth=1;fillColor=none;" vertex="1" parent="oeZgPJDQ6QQvf6BXIIXQ-14">
          <mxGeometry x="70" y="40" width="140" height="20" as="geometry" />
        </mxCell>
        <mxCell id="oeZgPJDQ6QQvf6BXIIXQ-11" value="Sub" style="rounded=0;whiteSpace=wrap;html=1;shadow=0;glass=1;fillStyle=hatch;fontSize=12;strokeWidth=1;fillColor=none;" vertex="1" parent="oeZgPJDQ6QQvf6BXIIXQ-14">
          <mxGeometry x="70" y="60" width="70" height="20" as="geometry" />
        </mxCell>
        <mxCell id="oeZgPJDQ6QQvf6BXIIXQ-12" value="Agent" style="rounded=0;whiteSpace=wrap;html=1;shadow=0;glass=1;fillStyle=hatch;fontSize=12;strokeWidth=1;fillColor=none;" vertex="1" parent="oeZgPJDQ6QQvf6BXIIXQ-14">
          <mxGeometry x="140" y="60" width="70" height="20" as="geometry" />
        </mxCell>
        <mxCell id="oeZgPJDQ6QQvf6BXIIXQ-13" value="CMDB" style="rounded=0;whiteSpace=wrap;html=1;shadow=0;glass=1;fillStyle=hatch;fontSize=12;strokeWidth=1;fillColor=none;" vertex="1" parent="oeZgPJDQ6QQvf6BXIIXQ-14">
          <mxGeometry x="70" y="80" width="140" height="20" as="geometry" />
        </mxCell>
        <mxCell id="oeZgPJDQ6QQvf6BXIIXQ-15" value="访问中间件" style="rounded=0;whiteSpace=wrap;html=1;shadow=0;glass=1;fillStyle=hatch;fontSize=12;strokeWidth=1;fillColor=none;" vertex="1" parent="1">
          <mxGeometry x="320" y="360" width="70" height="100" as="geometry" />
        </mxCell>
        <mxCell id="oeZgPJDQ6QQvf6BXIIXQ-16" value="智能DBA" style="rounded=0;whiteSpace=wrap;html=1;shadow=0;glass=1;fillStyle=hatch;fontSize=12;strokeWidth=1;fillColor=none;" vertex="1" parent="1">
          <mxGeometry x="430" y="360" width="70" height="100" as="geometry" />
        </mxCell>
        <mxCell id="oeZgPJDQ6QQvf6BXIIXQ-17" value="Handler" style="rounded=0;whiteSpace=wrap;html=1;shadow=0;glass=1;fillStyle=hatch;fontSize=12;strokeWidth=1;fillColor=none;" vertex="1" parent="1">
          <mxGeometry x="180" y="360" width="140" height="20" as="geometry" />
        </mxCell>
        <mxCell id="oeZgPJDQ6QQvf6BXIIXQ-18" value="Parser" style="rounded=0;whiteSpace=wrap;html=1;shadow=0;glass=1;fillStyle=hatch;fontSize=12;strokeWidth=1;fillColor=none;" vertex="1" parent="1">
          <mxGeometry x="180" y="380" width="140" height="20" as="geometry" />
        </mxCell>
        <mxCell id="oeZgPJDQ6QQvf6BXIIXQ-19" value="Conn Pool" style="rounded=0;whiteSpace=wrap;html=1;shadow=0;glass=1;fillStyle=hatch;fontSize=12;strokeWidth=1;fillColor=none;" vertex="1" parent="1">
          <mxGeometry x="180" y="400" width="140" height="20" as="geometry" />
        </mxCell>
        <mxCell id="oeZgPJDQ6QQvf6BXIIXQ-20" value="HA" style="rounded=0;whiteSpace=wrap;html=1;shadow=0;glass=1;fillStyle=hatch;fontSize=12;strokeWidth=1;fillColor=none;" vertex="1" parent="1">
          <mxGeometry x="180" y="420" width="140" height="20" as="geometry" />
        </mxCell>
        <mxCell id="oeZgPJDQ6QQvf6BXIIXQ-21" value="GC" style="rounded=0;whiteSpace=wrap;html=1;shadow=0;glass=1;fillStyle=hatch;fontSize=12;strokeWidth=1;fillColor=none;" vertex="1" parent="1">
          <mxGeometry x="180" y="440" width="140" height="20" as="geometry" />
        </mxCell>
        <mxCell id="oeZgPJDQ6QQvf6BXIIXQ-22" value="Rule" style="rounded=0;whiteSpace=wrap;html=1;shadow=0;glass=1;fillStyle=hatch;fontSize=12;strokeWidth=1;fillColor=none;" vertex="1" parent="1">
          <mxGeometry x="500" y="360" width="140" height="20" as="geometry" />
        </mxCell>
        <mxCell id="oeZgPJDQ6QQvf6BXIIXQ-23" value="Model" style="rounded=0;whiteSpace=wrap;html=1;shadow=0;glass=1;fillStyle=hatch;fontSize=12;strokeWidth=1;fillColor=none;" vertex="1" parent="1">
          <mxGeometry x="500" y="380" width="140" height="20" as="geometry" />
        </mxCell>
        <mxCell id="oeZgPJDQ6QQvf6BXIIXQ-24" value="Analyzer" style="rounded=0;whiteSpace=wrap;html=1;shadow=0;glass=1;fillStyle=hatch;fontSize=12;strokeWidth=1;fillColor=none;" vertex="1" parent="1">
          <mxGeometry x="500" y="400" width="140" height="20" as="geometry" />
        </mxCell>
        <mxCell id="oeZgPJDQ6QQvf6BXIIXQ-25" value="Tunner" style="rounded=0;whiteSpace=wrap;html=1;shadow=0;glass=1;fillStyle=hatch;fontSize=12;strokeWidth=1;fillColor=none;" vertex="1" parent="1">
          <mxGeometry x="500" y="420" width="140" height="20" as="geometry" />
        </mxCell>
        <mxCell id="oeZgPJDQ6QQvf6BXIIXQ-26" value="Simulator" style="rounded=0;whiteSpace=wrap;html=1;shadow=0;glass=1;fillStyle=hatch;fontSize=12;strokeWidth=1;fillColor=none;" vertex="1" parent="1">
          <mxGeometry x="500" y="440" width="140" height="20" as="geometry" />
        </mxCell>
        <mxCell id="oeZgPJDQ6QQvf6BXIIXQ-27" value="API" style="shape=cross;whiteSpace=wrap;html=1;shadow=0;glass=1;fillStyle=hatch;fontSize=12;strokeWidth=1;fillColor=none;" vertex="1" parent="1">
          <mxGeometry x="360" y="290" width="100" height="100" as="geometry" />
        </mxCell>
        <mxCell id="oeZgPJDQ6QQvf6BXIIXQ-28" value="Open API" style="rounded=0;whiteSpace=wrap;html=1;shadow=0;glass=1;fillStyle=hatch;fontSize=12;strokeWidth=1;fillColor=none;" vertex="1" parent="1">
          <mxGeometry x="180" y="170" width="460" height="30" as="geometry" />
        </mxCell>
        <mxCell id="oeZgPJDQ6QQvf6BXIIXQ-29" value="" style="rounded=0;whiteSpace=wrap;html=1;shadow=0;glass=1;fillStyle=hatch;fontSize=12;strokeWidth=1;fillColor=none;" vertex="1" parent="1">
          <mxGeometry x="180" y="530" width="460" height="90" as="geometry" />
        </mxCell>
        <mxCell id="oeZgPJDQ6QQvf6BXIIXQ-30" value="Resource Pool" style="text;html=1;strokeColor=none;fillColor=none;align=center;verticalAlign=middle;whiteSpace=wrap;rounded=0;shadow=0;glass=1;fillStyle=hatch;fontSize=12;" vertex="1" parent="1">
          <mxGeometry x="240" y="560" width="120" height="30" as="geometry" />
        </mxCell>
        <mxCell id="oeZgPJDQ6QQvf6BXIIXQ-31" value="Oracle，Tidb，GreenPlum，Dameng" style="rounded=0;whiteSpace=wrap;html=1;shadow=0;glass=1;fillStyle=hatch;fontSize=12;strokeWidth=1;fillColor=none;" vertex="1" parent="1">
          <mxGeometry x="410" y="530" width="230" height="30" as="geometry" />
        </mxCell>
        <mxCell id="oeZgPJDQ6QQvf6BXIIXQ-32" value="RedHat，CentOS，VM，Docker，K8S" style="rounded=0;whiteSpace=wrap;html=1;shadow=0;glass=1;fillStyle=hatch;fontSize=12;strokeWidth=1;fillColor=none;" vertex="1" parent="1">
          <mxGeometry x="410" y="560" width="230" height="30" as="geometry" />
        </mxCell>
        <mxCell id="oeZgPJDQ6QQvf6BXIIXQ-33" value="CPU，Memory，Disk，Network" style="rounded=0;whiteSpace=wrap;html=1;shadow=0;glass=1;fillStyle=hatch;fontSize=12;strokeWidth=1;fillColor=none;" vertex="1" parent="1">
          <mxGeometry x="410" y="590" width="230" height="30" as="geometry" />
        </mxCell>
        <mxCell id="oeZgPJDQ6QQvf6BXIIXQ-34" value="" style="rounded=0;whiteSpace=wrap;html=1;shadow=0;glass=1;fillStyle=hatch;fontSize=12;strokeWidth=1;fillColor=none;dashed=1;" vertex="1" parent="1">
          <mxGeometry x="170" y="155" width="480" height="325" as="geometry" />
        </mxCell>
        <mxCell id="oeZgPJDQ6QQvf6BXIIXQ-35" value="" style="shape=flexArrow;endArrow=classic;startArrow=classic;html=1;rounded=0;fontSize=12;width=10;endSize=3.225;startSize=3.225;" edge="1" parent="1">
          <mxGeometry width="100" height="100" relative="1" as="geometry">
            <mxPoint x="240.57999999999998" y="530" as="sourcePoint" />
            <mxPoint x="240.57999999999998" y="480" as="targetPoint" />
          </mxGeometry>
        </mxCell>
        <mxCell id="oeZgPJDQ6QQvf6BXIIXQ-36" value="" style="shape=flexArrow;endArrow=classic;startArrow=classic;html=1;rounded=0;fontSize=12;width=10;endSize=3.225;startSize=3.225;" edge="1" parent="1">
          <mxGeometry width="100" height="100" relative="1" as="geometry">
            <mxPoint x="409.17" y="530" as="sourcePoint" />
            <mxPoint x="409.17" y="480" as="targetPoint" />
          </mxGeometry>
        </mxCell>
        <mxCell id="oeZgPJDQ6QQvf6BXIIXQ-37" value="" style="shape=flexArrow;endArrow=classic;startArrow=classic;html=1;rounded=0;fontSize=12;width=10;endSize=3.225;startSize=3.225;" edge="1" parent="1">
          <mxGeometry width="100" height="100" relative="1" as="geometry">
            <mxPoint x="579.58" y="530" as="sourcePoint" />
            <mxPoint x="579.58" y="480" as="targetPoint" />
          </mxGeometry>
        </mxCell>
        <mxCell id="oeZgPJDQ6QQvf6BXIIXQ-38" value="" style="shape=flexArrow;endArrow=classic;startArrow=classic;html=1;rounded=0;fontSize=12;width=10;endSize=3.225;startSize=3.225;" edge="1" parent="1">
          <mxGeometry width="100" height="100" relative="1" as="geometry">
            <mxPoint x="240.5800000000001" y="155" as="sourcePoint" />
            <mxPoint x="240.5800000000001" y="105" as="targetPoint" />
          </mxGeometry>
        </mxCell>
        <mxCell id="oeZgPJDQ6QQvf6BXIIXQ-39" value="" style="shape=flexArrow;endArrow=classic;startArrow=classic;html=1;rounded=0;fontSize=12;width=10;endSize=3.225;startSize=3.225;" edge="1" parent="1">
          <mxGeometry width="100" height="100" relative="1" as="geometry">
            <mxPoint x="409.17" y="155" as="sourcePoint" />
            <mxPoint x="409.17" y="104.99999999999989" as="targetPoint" />
          </mxGeometry>
        </mxCell>
        <mxCell id="oeZgPJDQ6QQvf6BXIIXQ-41" value="" style="shape=flexArrow;endArrow=classic;startArrow=classic;html=1;rounded=0;fontSize=12;width=10;endSize=3.225;startSize=3.225;" edge="1" parent="1">
          <mxGeometry width="100" height="100" relative="1" as="geometry">
            <mxPoint x="579.58" y="155" as="sourcePoint" />
            <mxPoint x="579.58" y="104.99999999999989" as="targetPoint" />
          </mxGeometry>
        </mxCell>
        <mxCell id="oeZgPJDQ6QQvf6BXIIXQ-42" value="IaaS" style="rounded=0;whiteSpace=wrap;html=1;shadow=0;glass=1;fillStyle=hatch;fontSize=12;strokeWidth=1;fillColor=none;" vertex="1" parent="1">
          <mxGeometry x="181" y="64" width="120" height="40" as="geometry" />
        </mxCell>
        <mxCell id="oeZgPJDQ6QQvf6BXIIXQ-44" value="PaaS" style="rounded=0;whiteSpace=wrap;html=1;shadow=0;glass=1;fillStyle=hatch;fontSize=12;strokeWidth=1;fillColor=none;" vertex="1" parent="1">
          <mxGeometry x="350" y="64" width="120" height="40" as="geometry" />
        </mxCell>
        <mxCell id="oeZgPJDQ6QQvf6BXIIXQ-45" value="SaaS" style="rounded=0;whiteSpace=wrap;html=1;shadow=0;glass=1;fillStyle=hatch;fontSize=12;strokeWidth=1;fillColor=none;" vertex="1" parent="1">
          <mxGeometry x="520" y="64" width="120" height="40" as="geometry" />
        </mxCell>
        <mxCell id="oeZgPJDQ6QQvf6BXIIXQ-58" style="edgeStyle=orthogonalEdgeStyle;rounded=0;orthogonalLoop=1;jettySize=auto;html=1;entryX=0;entryY=0.268;entryDx=0;entryDy=0;entryPerimeter=0;fontSize=12;" edge="1" parent="1" source="oeZgPJDQ6QQvf6BXIIXQ-46" target="oeZgPJDQ6QQvf6BXIIXQ-34">
          <mxGeometry relative="1" as="geometry" />
        </mxCell>
        <mxCell id="oeZgPJDQ6QQvf6BXIIXQ-46" value="Admin" style="rounded=0;whiteSpace=wrap;html=1;shadow=0;glass=1;fillStyle=hatch;fontSize=12;strokeWidth=1;fillColor=none;" vertex="1" parent="1">
          <mxGeometry x="-30" y="222" width="120" height="40" as="geometry" />
        </mxCell>
        <mxCell id="oeZgPJDQ6QQvf6BXIIXQ-59" style="edgeStyle=orthogonalEdgeStyle;rounded=0;orthogonalLoop=1;jettySize=auto;html=1;entryX=-0.003;entryY=0.448;entryDx=0;entryDy=0;entryPerimeter=0;fontSize=12;" edge="1" parent="1" source="oeZgPJDQ6QQvf6BXIIXQ-47" target="oeZgPJDQ6QQvf6BXIIXQ-34">
          <mxGeometry relative="1" as="geometry" />
        </mxCell>
        <mxCell id="oeZgPJDQ6QQvf6BXIIXQ-47" value="User" style="rounded=0;whiteSpace=wrap;html=1;shadow=0;glass=1;fillStyle=hatch;fontSize=12;strokeWidth=1;fillColor=none;" vertex="1" parent="1">
          <mxGeometry x="-30" y="280" width="120" height="40" as="geometry" />
        </mxCell>
        <mxCell id="oeZgPJDQ6QQvf6BXIIXQ-51" style="edgeStyle=orthogonalEdgeStyle;rounded=0;orthogonalLoop=1;jettySize=auto;html=1;exitX=1;exitY=0.5;exitDx=0;exitDy=0;entryX=0;entryY=0.691;entryDx=0;entryDy=0;entryPerimeter=0;fontSize=12;" edge="1" parent="1" source="oeZgPJDQ6QQvf6BXIIXQ-48" target="oeZgPJDQ6QQvf6BXIIXQ-34">
          <mxGeometry relative="1" as="geometry" />
        </mxCell>
        <mxCell id="oeZgPJDQ6QQvf6BXIIXQ-48" value="APP" style="rounded=0;whiteSpace=wrap;html=1;shadow=0;glass=1;fillStyle=hatch;fontSize=12;strokeWidth=1;fillColor=none;" vertex="1" parent="1">
          <mxGeometry x="-30" y="360" width="120" height="40" as="geometry" />
        </mxCell>
        <mxCell id="oeZgPJDQ6QQvf6BXIIXQ-53" style="edgeStyle=orthogonalEdgeStyle;rounded=0;orthogonalLoop=1;jettySize=auto;html=1;entryX=0.003;entryY=0.876;entryDx=0;entryDy=0;entryPerimeter=0;fontSize=12;" edge="1" parent="1" source="oeZgPJDQ6QQvf6BXIIXQ-49" target="oeZgPJDQ6QQvf6BXIIXQ-34">
          <mxGeometry relative="1" as="geometry" />
        </mxCell>
        <mxCell id="oeZgPJDQ6QQvf6BXIIXQ-49" value="Tools" style="rounded=0;whiteSpace=wrap;html=1;shadow=0;glass=1;fillStyle=hatch;fontSize=12;strokeWidth=1;fillColor=none;" vertex="1" parent="1">
          <mxGeometry x="-30" y="420" width="120" height="40" as="geometry" />
        </mxCell>
      </root>
    </mxGraphModel>
  </diagram>
  <diagram id="-j2mnRwp3P1QCg7WM3Bs" name="第 4 页">
    <mxGraphModel dx="1368" dy="828" grid="1" gridSize="10" guides="1" tooltips="1" connect="1" arrows="1" fold="1" page="1" pageScale="1" pageWidth="850" pageHeight="1100" math="0" shadow="0">
      <root>
        <mxCell id="0" />
        <mxCell id="1" parent="0" />
        <mxCell id="9NW2BsGQJZhmUH2UOUnX-26" value="" style="rounded=0;whiteSpace=wrap;html=1;shadow=0;glass=1;fillStyle=hatch;fontSize=12;strokeWidth=1;fillColor=none;fontStyle=4" vertex="1" parent="1">
          <mxGeometry x="140" y="180" width="800" height="470" as="geometry" />
        </mxCell>
        <mxCell id="9NW2BsGQJZhmUH2UOUnX-1" value="" style="rounded=0;whiteSpace=wrap;html=1;shadow=0;glass=1;fillStyle=hatch;fontSize=12;strokeWidth=1;fillColor=none;fontStyle=4" vertex="1" parent="1">
          <mxGeometry x="160" y="240" width="480" height="90" as="geometry" />
        </mxCell>
        <mxCell id="9NW2BsGQJZhmUH2UOUnX-2" value="Register" style="rounded=0;whiteSpace=wrap;html=1;shadow=0;glass=1;fillStyle=hatch;fontSize=12;strokeWidth=1;fillColor=none;fontStyle=4" vertex="1" parent="1">
          <mxGeometry x="190" y="280" width="120" height="40" as="geometry" />
        </mxCell>
        <mxCell id="9NW2BsGQJZhmUH2UOUnX-3" value="Privilege" style="rounded=0;whiteSpace=wrap;html=1;shadow=0;glass=1;fillStyle=hatch;fontSize=12;strokeWidth=1;fillColor=none;fontStyle=4" vertex="1" parent="1">
          <mxGeometry x="340" y="280" width="120" height="40" as="geometry" />
        </mxCell>
        <mxCell id="9NW2BsGQJZhmUH2UOUnX-4" value="Profile" style="rounded=0;whiteSpace=wrap;html=1;shadow=0;glass=1;fillStyle=hatch;fontSize=12;strokeWidth=1;fillColor=none;fontStyle=4" vertex="1" parent="1">
          <mxGeometry x="490" y="280" width="120" height="40" as="geometry" />
        </mxCell>
        <mxCell id="9NW2BsGQJZhmUH2UOUnX-5" value="User" style="text;html=1;strokeColor=none;fillColor=none;align=center;verticalAlign=middle;whiteSpace=wrap;rounded=0;shadow=0;glass=1;fillStyle=hatch;fontSize=12;fontStyle=4" vertex="1" parent="1">
          <mxGeometry x="370" y="245" width="60" height="30" as="geometry" />
        </mxCell>
        <mxCell id="9NW2BsGQJZhmUH2UOUnX-6" value="" style="rounded=0;whiteSpace=wrap;html=1;shadow=0;glass=1;fillStyle=hatch;fontSize=12;strokeWidth=1;fillColor=none;fontStyle=4" vertex="1" parent="1">
          <mxGeometry x="160" y="350" width="480" height="90" as="geometry" />
        </mxCell>
        <mxCell id="9NW2BsGQJZhmUH2UOUnX-7" value="Server" style="rounded=0;whiteSpace=wrap;html=1;shadow=0;glass=1;fillStyle=hatch;fontSize=12;strokeWidth=1;fillColor=none;fontStyle=4" vertex="1" parent="1">
          <mxGeometry x="190" y="390" width="90" height="40" as="geometry" />
        </mxCell>
        <mxCell id="9NW2BsGQJZhmUH2UOUnX-8" value="RDS" style="rounded=0;whiteSpace=wrap;html=1;shadow=0;glass=1;fillStyle=hatch;fontSize=12;strokeWidth=1;fillColor=none;fontStyle=4" vertex="1" parent="1">
          <mxGeometry x="300" y="390" width="90" height="40" as="geometry" />
        </mxCell>
        <mxCell id="9NW2BsGQJZhmUH2UOUnX-10" value="CMDB&lt;br&gt;" style="text;html=1;strokeColor=none;fillColor=none;align=center;verticalAlign=middle;whiteSpace=wrap;rounded=0;shadow=0;glass=1;fillStyle=hatch;fontSize=12;fontStyle=4" vertex="1" parent="1">
          <mxGeometry x="370" y="355" width="60" height="30" as="geometry" />
        </mxCell>
        <mxCell id="9NW2BsGQJZhmUH2UOUnX-11" value="DB" style="rounded=0;whiteSpace=wrap;html=1;shadow=0;glass=1;fillStyle=hatch;fontSize=12;strokeWidth=1;fillColor=none;fontStyle=4" vertex="1" parent="1">
          <mxGeometry x="410" y="390" width="90" height="40" as="geometry" />
        </mxCell>
        <mxCell id="9NW2BsGQJZhmUH2UOUnX-12" value="VIP" style="rounded=0;whiteSpace=wrap;html=1;shadow=0;glass=1;fillStyle=hatch;fontSize=12;strokeWidth=1;fillColor=none;fontStyle=4" vertex="1" parent="1">
          <mxGeometry x="520" y="390" width="90" height="40" as="geometry" />
        </mxCell>
        <mxCell id="9NW2BsGQJZhmUH2UOUnX-15" value="" style="rounded=0;whiteSpace=wrap;html=1;shadow=0;glass=1;fillStyle=hatch;fontSize=12;strokeWidth=1;fillColor=none;fontStyle=4" vertex="1" parent="1">
          <mxGeometry x="160" y="460" width="480" height="90" as="geometry" />
        </mxCell>
        <mxCell id="9NW2BsGQJZhmUH2UOUnX-16" value="Backup" style="rounded=0;whiteSpace=wrap;html=1;shadow=0;glass=1;fillStyle=hatch;fontSize=12;strokeWidth=1;fillColor=none;fontStyle=4" vertex="1" parent="1">
          <mxGeometry x="190" y="500" width="90" height="40" as="geometry" />
        </mxCell>
        <mxCell id="9NW2BsGQJZhmUH2UOUnX-17" value="Failover" style="rounded=0;whiteSpace=wrap;html=1;shadow=0;glass=1;fillStyle=hatch;fontSize=12;strokeWidth=1;fillColor=none;fontStyle=4" vertex="1" parent="1">
          <mxGeometry x="300" y="500" width="90" height="40" as="geometry" />
        </mxCell>
        <mxCell id="9NW2BsGQJZhmUH2UOUnX-18" value="Task" style="text;html=1;strokeColor=none;fillColor=none;align=center;verticalAlign=middle;whiteSpace=wrap;rounded=0;shadow=0;glass=1;fillStyle=hatch;fontSize=12;fontStyle=4" vertex="1" parent="1">
          <mxGeometry x="370" y="465" width="60" height="30" as="geometry" />
        </mxCell>
        <mxCell id="9NW2BsGQJZhmUH2UOUnX-19" value="Deploy" style="rounded=0;whiteSpace=wrap;html=1;shadow=0;glass=1;fillStyle=hatch;fontSize=12;strokeWidth=1;fillColor=none;fontStyle=4" vertex="1" parent="1">
          <mxGeometry x="410" y="500" width="90" height="40" as="geometry" />
        </mxCell>
        <mxCell id="9NW2BsGQJZhmUH2UOUnX-20" value="Migrate" style="rounded=0;whiteSpace=wrap;html=1;shadow=0;glass=1;fillStyle=hatch;fontSize=12;strokeWidth=1;fillColor=none;fontStyle=4" vertex="1" parent="1">
          <mxGeometry x="520" y="500" width="90" height="40" as="geometry" />
        </mxCell>
        <mxCell id="9NW2BsGQJZhmUH2UOUnX-21" value="Config" style="rounded=0;whiteSpace=wrap;html=1;shadow=0;glass=1;fillStyle=hatch;fontSize=12;strokeWidth=1;fillColor=none;fontStyle=4" vertex="1" parent="1">
          <mxGeometry x="720" y="260" width="180" height="50" as="geometry" />
        </mxCell>
        <mxCell id="9NW2BsGQJZhmUH2UOUnX-23" value="Monitor" style="rounded=0;whiteSpace=wrap;html=1;shadow=0;glass=1;fillStyle=hatch;fontSize=12;strokeWidth=1;fillColor=none;fontStyle=4" vertex="1" parent="1">
          <mxGeometry x="720" y="370" width="180" height="50" as="geometry" />
        </mxCell>
        <mxCell id="9NW2BsGQJZhmUH2UOUnX-24" value="Evaluation" style="rounded=0;whiteSpace=wrap;html=1;shadow=0;glass=1;fillStyle=hatch;fontSize=12;strokeWidth=1;fillColor=none;fontStyle=4" vertex="1" parent="1">
          <mxGeometry x="720" y="480" width="180" height="50" as="geometry" />
        </mxCell>
        <mxCell id="9NW2BsGQJZhmUH2UOUnX-25" value="Interaction" style="rounded=0;whiteSpace=wrap;html=1;shadow=0;glass=1;fillStyle=hatch;fontSize=12;strokeWidth=1;fillColor=none;fontStyle=4" vertex="1" parent="1">
          <mxGeometry x="720" y="575" width="180" height="50" as="geometry" />
        </mxCell>
        <mxCell id="9NW2BsGQJZhmUH2UOUnX-27" value="DBaaS Management" style="text;html=1;strokeColor=none;fillColor=none;align=center;verticalAlign=middle;whiteSpace=wrap;rounded=0;shadow=0;glass=1;fillStyle=hatch;fontSize=12;fontStyle=0" vertex="1" parent="1">
          <mxGeometry x="465" y="196" width="150" height="30" as="geometry" />
        </mxCell>
        <mxCell id="eOhduf2OfFDrtFQFCm7z-1" value="&lt;u&gt;APIs&lt;/u&gt;" style="rounded=0;whiteSpace=wrap;html=1;shadow=0;glass=1;fillStyle=hatch;fontSize=12;strokeWidth=1;fillColor=none;" vertex="1" parent="1">
          <mxGeometry x="160" y="570" width="480" height="60" as="geometry" />
        </mxCell>
      </root>
    </mxGraphModel>
  </diagram>
  <diagram id="ooH33PnBD7BHvWRj6DyG" name="第 5 页">
    <mxGraphModel dx="1368" dy="828" grid="1" gridSize="10" guides="1" tooltips="1" connect="1" arrows="1" fold="1" page="1" pageScale="1" pageWidth="850" pageHeight="1100" math="0" shadow="0">
      <root>
        <mxCell id="0" />
        <mxCell id="1" parent="0" />
        <mxCell id="l4fllB9x8gAoQW2nL8Rk-22" value="" style="rounded=0;whiteSpace=wrap;html=1;shadow=0;glass=1;fillStyle=hatch;fontSize=12;strokeWidth=1;fillColor=none;fontStyle=4" vertex="1" parent="1">
          <mxGeometry x="130" y="180" width="800" height="470" as="geometry" />
        </mxCell>
        <mxCell id="l4fllB9x8gAoQW2nL8Rk-1" value="" style="rounded=0;whiteSpace=wrap;html=1;shadow=0;glass=1;fillStyle=hatch;fontSize=12;strokeWidth=1;fillColor=none;fontStyle=4" vertex="1" parent="1">
          <mxGeometry x="160" y="240" width="480" height="90" as="geometry" />
        </mxCell>
        <mxCell id="l4fllB9x8gAoQW2nL8Rk-2" value="User" style="rounded=0;whiteSpace=wrap;html=1;shadow=0;glass=1;fillStyle=hatch;fontSize=12;strokeWidth=1;fillColor=none;fontStyle=4" vertex="1" parent="1">
          <mxGeometry x="190" y="280" width="120" height="40" as="geometry" />
        </mxCell>
        <mxCell id="l4fllB9x8gAoQW2nL8Rk-3" value="Privilege" style="rounded=0;whiteSpace=wrap;html=1;shadow=0;glass=1;fillStyle=hatch;fontSize=12;strokeWidth=1;fillColor=none;fontStyle=4" vertex="1" parent="1">
          <mxGeometry x="340" y="280" width="120" height="40" as="geometry" />
        </mxCell>
        <mxCell id="l4fllB9x8gAoQW2nL8Rk-4" value="WhiteList/BlackList" style="rounded=0;whiteSpace=wrap;html=1;shadow=0;glass=1;fillStyle=hatch;fontSize=12;strokeWidth=1;fillColor=none;fontStyle=4" vertex="1" parent="1">
          <mxGeometry x="490" y="280" width="120" height="40" as="geometry" />
        </mxCell>
        <mxCell id="l4fllB9x8gAoQW2nL8Rk-5" value="AUTH" style="text;html=1;strokeColor=none;fillColor=none;align=center;verticalAlign=middle;whiteSpace=wrap;rounded=0;shadow=0;glass=1;fillStyle=hatch;fontSize=12;fontStyle=4" vertex="1" parent="1">
          <mxGeometry x="370" y="245" width="60" height="30" as="geometry" />
        </mxCell>
        <mxCell id="l4fllB9x8gAoQW2nL8Rk-6" value="" style="rounded=0;whiteSpace=wrap;html=1;shadow=0;glass=1;fillStyle=hatch;fontSize=12;strokeWidth=1;fillColor=none;fontStyle=4" vertex="1" parent="1">
          <mxGeometry x="160" y="350" width="480" height="90" as="geometry" />
        </mxCell>
        <mxCell id="l4fllB9x8gAoQW2nL8Rk-7" value="Parser" style="rounded=0;whiteSpace=wrap;html=1;shadow=0;glass=1;fillStyle=hatch;fontSize=12;strokeWidth=1;fillColor=none;fontStyle=4" vertex="1" parent="1">
          <mxGeometry x="190" y="390" width="120" height="40" as="geometry" />
        </mxCell>
        <mxCell id="l4fllB9x8gAoQW2nL8Rk-8" value="Handler" style="rounded=0;whiteSpace=wrap;html=1;shadow=0;glass=1;fillStyle=hatch;fontSize=12;strokeWidth=1;fillColor=none;fontStyle=4" vertex="1" parent="1">
          <mxGeometry x="340" y="390" width="120" height="40" as="geometry" />
        </mxCell>
        <mxCell id="l4fllB9x8gAoQW2nL8Rk-9" value="SQL" style="text;html=1;strokeColor=none;fillColor=none;align=center;verticalAlign=middle;whiteSpace=wrap;rounded=0;shadow=0;glass=1;fillStyle=hatch;fontSize=12;fontStyle=4" vertex="1" parent="1">
          <mxGeometry x="370" y="355" width="60" height="30" as="geometry" />
        </mxCell>
        <mxCell id="l4fllB9x8gAoQW2nL8Rk-10" value="Auditor" style="rounded=0;whiteSpace=wrap;html=1;shadow=0;glass=1;fillStyle=hatch;fontSize=12;strokeWidth=1;fillColor=none;fontStyle=4" vertex="1" parent="1">
          <mxGeometry x="490" y="390" width="120" height="40" as="geometry" />
        </mxCell>
        <mxCell id="l4fllB9x8gAoQW2nL8Rk-12" value="" style="rounded=0;whiteSpace=wrap;html=1;shadow=0;glass=1;fillStyle=hatch;fontSize=12;strokeWidth=1;fillColor=none;fontStyle=4" vertex="1" parent="1">
          <mxGeometry x="160" y="460" width="480" height="90" as="geometry" />
        </mxCell>
        <mxCell id="l4fllB9x8gAoQW2nL8Rk-15" value="Connection" style="text;html=1;strokeColor=none;fillColor=none;align=center;verticalAlign=middle;whiteSpace=wrap;rounded=0;shadow=0;glass=1;fillStyle=hatch;fontSize=12;fontStyle=4" vertex="1" parent="1">
          <mxGeometry x="370" y="465" width="60" height="30" as="geometry" />
        </mxCell>
        <mxCell id="l4fllB9x8gAoQW2nL8Rk-18" value="Monitor" style="rounded=0;whiteSpace=wrap;html=1;shadow=0;glass=1;fillStyle=hatch;fontSize=12;strokeWidth=1;fillColor=none;fontStyle=4" vertex="1" parent="1">
          <mxGeometry x="720" y="240" width="180" height="50" as="geometry" />
        </mxCell>
        <mxCell id="l4fllB9x8gAoQW2nL8Rk-19" value="HA" style="rounded=0;whiteSpace=wrap;html=1;shadow=0;glass=1;fillStyle=hatch;fontSize=12;strokeWidth=1;fillColor=none;fontStyle=4" vertex="1" parent="1">
          <mxGeometry x="720" y="320" width="180" height="50" as="geometry" />
        </mxCell>
        <mxCell id="l4fllB9x8gAoQW2nL8Rk-20" value="Statistic" style="rounded=0;whiteSpace=wrap;html=1;shadow=0;glass=1;fillStyle=hatch;fontSize=12;strokeWidth=1;fillColor=none;fontStyle=4" vertex="1" parent="1">
          <mxGeometry x="720" y="410" width="180" height="50" as="geometry" />
        </mxCell>
        <mxCell id="l4fllB9x8gAoQW2nL8Rk-21" value="Config" style="rounded=0;whiteSpace=wrap;html=1;shadow=0;glass=1;fillStyle=hatch;fontSize=12;strokeWidth=1;fillColor=none;fontStyle=4" vertex="1" parent="1">
          <mxGeometry x="720" y="500" width="180" height="50" as="geometry" />
        </mxCell>
        <mxCell id="l4fllB9x8gAoQW2nL8Rk-23" value="DBaaS Cloud Server" style="text;html=1;strokeColor=none;fillColor=none;align=center;verticalAlign=middle;whiteSpace=wrap;rounded=0;shadow=0;glass=1;fillStyle=hatch;fontSize=12;fontStyle=0" vertex="1" parent="1">
          <mxGeometry x="465" y="196" width="150" height="30" as="geometry" />
        </mxCell>
        <mxCell id="SRwnHK04YTDCNm77WvB0-1" value="&lt;u&gt;APIs&lt;/u&gt;" style="rounded=0;whiteSpace=wrap;html=1;shadow=0;glass=1;fillStyle=hatch;fontSize=12;strokeWidth=1;fillColor=none;" vertex="1" parent="1">
          <mxGeometry x="160" y="570" width="480" height="60" as="geometry" />
        </mxCell>
        <mxCell id="SRwnHK04YTDCNm77WvB0-2" value="Session" style="rounded=0;whiteSpace=wrap;html=1;shadow=0;glass=1;fillStyle=hatch;fontSize=12;strokeWidth=1;fillColor=none;fontStyle=4" vertex="1" parent="1">
          <mxGeometry x="190" y="500" width="120" height="40" as="geometry" />
        </mxCell>
        <mxCell id="SRwnHK04YTDCNm77WvB0-3" value="Exception" style="rounded=0;whiteSpace=wrap;html=1;shadow=0;glass=1;fillStyle=hatch;fontSize=12;strokeWidth=1;fillColor=none;fontStyle=4" vertex="1" parent="1">
          <mxGeometry x="340" y="500" width="120" height="40" as="geometry" />
        </mxCell>
        <mxCell id="SRwnHK04YTDCNm77WvB0-4" value="Connection Pool" style="rounded=0;whiteSpace=wrap;html=1;shadow=0;glass=1;fillStyle=hatch;fontSize=12;strokeWidth=1;fillColor=none;fontStyle=4" vertex="1" parent="1">
          <mxGeometry x="490" y="500" width="120" height="40" as="geometry" />
        </mxCell>
        <mxCell id="SRwnHK04YTDCNm77WvB0-5" value="Log" style="rounded=0;whiteSpace=wrap;html=1;shadow=0;glass=1;fillStyle=hatch;fontSize=12;strokeWidth=1;fillColor=none;fontStyle=4" vertex="1" parent="1">
          <mxGeometry x="720" y="580" width="180" height="50" as="geometry" />
        </mxCell>
      </root>
    </mxGraphModel>
  </diagram>
  <diagram id="398bBXT7YAXaGgkWWu7B" name="第 6 页">
    <mxGraphModel dx="1368" dy="828" grid="1" gridSize="10" guides="1" tooltips="1" connect="1" arrows="1" fold="1" page="1" pageScale="1" pageWidth="850" pageHeight="1100" math="0" shadow="0">
      <root>
        <mxCell id="0" />
        <mxCell id="1" parent="0" />
        <mxCell id="Yxh4BrfWS3dlDEqEeIyU-1" value="Engines" style="rounded=0;whiteSpace=wrap;html=1;shadow=0;glass=1;fillStyle=hatch;fontSize=9;strokeWidth=1;fillColor=none;" vertex="1" parent="1">
          <mxGeometry x="200" y="160" width="70" height="120" as="geometry" />
        </mxCell>
        <mxCell id="Yxh4BrfWS3dlDEqEeIyU-2" value="Rule Engine" style="rounded=0;whiteSpace=wrap;html=1;shadow=0;glass=1;fillStyle=hatch;fontSize=9;strokeWidth=1;fillColor=none;" vertex="1" parent="1">
          <mxGeometry x="270" y="160" width="90" height="40" as="geometry" />
        </mxCell>
        <mxCell id="Yxh4BrfWS3dlDEqEeIyU-3" value="Advisior" style="rounded=0;whiteSpace=wrap;html=1;shadow=0;glass=1;fillStyle=hatch;fontSize=9;strokeWidth=1;fillColor=none;" vertex="1" parent="1">
          <mxGeometry x="270" y="200" width="90" height="40" as="geometry" />
        </mxCell>
        <mxCell id="Yxh4BrfWS3dlDEqEeIyU-4" value="Model" style="rounded=0;whiteSpace=wrap;html=1;shadow=0;glass=1;fillStyle=hatch;fontSize=9;strokeWidth=1;fillColor=none;" vertex="1" parent="1">
          <mxGeometry x="270" y="240" width="90" height="40" as="geometry" />
        </mxCell>
        <mxCell id="m8c6PB1o9LGHHZDchqFc-1" value="Collector" style="rounded=0;whiteSpace=wrap;html=1;shadow=0;glass=1;fillStyle=hatch;fontSize=9;strokeWidth=1;fillColor=none;" vertex="1" parent="1">
          <mxGeometry x="470" y="160" width="70" height="120" as="geometry" />
        </mxCell>
        <mxCell id="m8c6PB1o9LGHHZDchqFc-2" value="Turner" style="rounded=0;whiteSpace=wrap;html=1;shadow=0;glass=1;fillStyle=hatch;fontSize=9;strokeWidth=1;fillColor=none;" vertex="1" parent="1">
          <mxGeometry x="360" y="160" width="90" height="40" as="geometry" />
        </mxCell>
        <mxCell id="m8c6PB1o9LGHHZDchqFc-3" value="Analyzer" style="rounded=0;whiteSpace=wrap;html=1;shadow=0;glass=1;fillStyle=hatch;fontSize=9;strokeWidth=1;fillColor=none;" vertex="1" parent="1">
          <mxGeometry x="360" y="200" width="90" height="40" as="geometry" />
        </mxCell>
        <mxCell id="m8c6PB1o9LGHHZDchqFc-4" value="Simulator" style="rounded=0;whiteSpace=wrap;html=1;shadow=0;glass=1;fillStyle=hatch;fontSize=9;strokeWidth=1;fillColor=none;" vertex="1" parent="1">
          <mxGeometry x="360" y="240" width="90" height="40" as="geometry" />
        </mxCell>
        <mxCell id="m8c6PB1o9LGHHZDchqFc-5" value="Meta Data" style="rounded=0;whiteSpace=wrap;html=1;shadow=0;glass=1;fillStyle=hatch;fontSize=9;strokeWidth=1;fillColor=none;" vertex="1" parent="1">
          <mxGeometry x="540" y="160" width="90" height="40" as="geometry" />
        </mxCell>
        <mxCell id="m8c6PB1o9LGHHZDchqFc-6" value="Schedule" style="rounded=0;whiteSpace=wrap;html=1;shadow=0;glass=1;fillStyle=hatch;fontSize=9;strokeWidth=1;fillColor=none;" vertex="1" parent="1">
          <mxGeometry x="540" y="200" width="90" height="40" as="geometry" />
        </mxCell>
        <mxCell id="m8c6PB1o9LGHHZDchqFc-7" value="Channel" style="rounded=0;whiteSpace=wrap;html=1;shadow=0;glass=1;fillStyle=hatch;fontSize=9;strokeWidth=1;fillColor=none;" vertex="1" parent="1">
          <mxGeometry x="540" y="240" width="90" height="40" as="geometry" />
        </mxCell>
        <mxCell id="m8c6PB1o9LGHHZDchqFc-9" value="Compute" style="rounded=0;whiteSpace=wrap;html=1;shadow=0;glass=1;fillStyle=hatch;fontSize=9;strokeWidth=1;fillColor=none;" vertex="1" parent="1">
          <mxGeometry x="200" y="280" width="70" height="40" as="geometry" />
        </mxCell>
        <mxCell id="m8c6PB1o9LGHHZDchqFc-10" value="" style="rounded=0;whiteSpace=wrap;html=1;shadow=0;glass=1;fillStyle=hatch;fontSize=9;strokeWidth=1;fillColor=none;" vertex="1" parent="1">
          <mxGeometry x="270" y="280" width="360" height="40" as="geometry" />
        </mxCell>
        <mxCell id="m8c6PB1o9LGHHZDchqFc-11" value="Cluster Management" style="rounded=0;whiteSpace=wrap;html=1;shadow=0;glass=1;fillStyle=hatch;fontSize=9;strokeWidth=1;fillColor=none;" vertex="1" parent="1">
          <mxGeometry x="280" y="285" width="120" height="30" as="geometry" />
        </mxCell>
        <mxCell id="m8c6PB1o9LGHHZDchqFc-12" value="Job Scheduler" style="rounded=0;whiteSpace=wrap;html=1;shadow=0;glass=1;fillStyle=hatch;fontSize=9;strokeWidth=1;fillColor=none;" vertex="1" parent="1">
          <mxGeometry x="410" y="285" width="100" height="30" as="geometry" />
        </mxCell>
        <mxCell id="m8c6PB1o9LGHHZDchqFc-13" value="Task Controller" style="rounded=0;whiteSpace=wrap;html=1;shadow=0;glass=1;fillStyle=hatch;fontSize=9;strokeWidth=1;fillColor=none;" vertex="1" parent="1">
          <mxGeometry x="520" y="285" width="100" height="30" as="geometry" />
        </mxCell>
        <mxCell id="m8c6PB1o9LGHHZDchqFc-14" value="Storage API" style="rounded=0;whiteSpace=wrap;html=1;shadow=0;glass=1;fillStyle=hatch;fontSize=9;strokeWidth=1;fillColor=none;" vertex="1" parent="1">
          <mxGeometry x="200" y="360" width="140" height="30" as="geometry" />
        </mxCell>
        <mxCell id="m8c6PB1o9LGHHZDchqFc-19" value="API Data" style="rounded=0;whiteSpace=wrap;html=1;shadow=0;glass=1;fillStyle=hatch;fontSize=9;strokeWidth=1;fillColor=none;" vertex="1" parent="1">
          <mxGeometry x="500" y="360" width="130" height="30" as="geometry" />
        </mxCell>
        <mxCell id="m8c6PB1o9LGHHZDchqFc-20" value="Push APi" style="rounded=0;whiteSpace=wrap;html=1;shadow=0;glass=1;fillStyle=hatch;fontSize=9;strokeWidth=1;fillColor=none;" vertex="1" parent="1">
          <mxGeometry x="349" y="360" width="140" height="30" as="geometry" />
        </mxCell>
        <mxCell id="nUbfjVZGUIIlSCX1xTMn-1" value="" style="shape=flexArrow;endArrow=classic;startArrow=classic;html=1;rounded=0;fontSize=9;width=10;endSize=3.225;startSize=3.225;entryX=1;entryY=1;entryDx=0;entryDy=0;" edge="1" parent="1">
          <mxGeometry width="100" height="100" relative="1" as="geometry">
            <mxPoint x="268.99999999999994" y="360" as="sourcePoint" />
            <mxPoint x="270" y="320" as="targetPoint" />
          </mxGeometry>
        </mxCell>
        <mxCell id="nUbfjVZGUIIlSCX1xTMn-2" value="" style="shape=flexArrow;endArrow=classic;startArrow=classic;html=1;rounded=0;fontSize=9;width=10;endSize=3.225;startSize=3.225;entryX=1;entryY=1;entryDx=0;entryDy=0;" edge="1" parent="1">
          <mxGeometry width="100" height="100" relative="1" as="geometry">
            <mxPoint x="414.5" y="360" as="sourcePoint" />
            <mxPoint x="415.5" y="320" as="targetPoint" />
          </mxGeometry>
        </mxCell>
        <mxCell id="nUbfjVZGUIIlSCX1xTMn-3" value="" style="shape=flexArrow;endArrow=classic;startArrow=classic;html=1;rounded=0;fontSize=9;width=10;endSize=3.225;startSize=3.225;entryX=1;entryY=1;entryDx=0;entryDy=0;" edge="1" parent="1">
          <mxGeometry width="100" height="100" relative="1" as="geometry">
            <mxPoint x="559.5" y="360" as="sourcePoint" />
            <mxPoint x="560.5" y="320" as="targetPoint" />
          </mxGeometry>
        </mxCell>
        <mxCell id="nUbfjVZGUIIlSCX1xTMn-4" value="" style="endArrow=none;dashed=1;html=1;dashPattern=1 3;strokeWidth=2;rounded=0;fontSize=9;" edge="1" parent="1">
          <mxGeometry width="50" height="50" relative="1" as="geometry">
            <mxPoint x="125" y="410" as="sourcePoint" />
            <mxPoint x="705" y="410" as="targetPoint" />
          </mxGeometry>
        </mxCell>
        <mxCell id="nUbfjVZGUIIlSCX1xTMn-5" value="Hbase/ES/CSV/Json/Yaml" style="rounded=0;whiteSpace=wrap;html=1;shadow=0;glass=1;fillStyle=hatch;fontSize=9;strokeWidth=1;fillColor=none;" vertex="1" parent="1">
          <mxGeometry x="200" y="430" width="290" height="30" as="geometry" />
        </mxCell>
        <mxCell id="nUbfjVZGUIIlSCX1xTMn-6" value="" style="shape=flexArrow;endArrow=classic;startArrow=classic;html=1;rounded=0;fontSize=9;width=10;endSize=3.225;startSize=3.225;entryX=1;entryY=1;entryDx=0;entryDy=0;" edge="1" parent="1">
          <mxGeometry width="100" height="100" relative="1" as="geometry">
            <mxPoint x="269" y="430" as="sourcePoint" />
            <mxPoint x="270" y="390" as="targetPoint" />
          </mxGeometry>
        </mxCell>
        <mxCell id="nUbfjVZGUIIlSCX1xTMn-7" value="Management/Server" style="rounded=0;whiteSpace=wrap;html=1;shadow=0;glass=1;fillStyle=hatch;fontSize=9;strokeWidth=1;fillColor=none;" vertex="1" parent="1">
          <mxGeometry x="500" y="430" width="130" height="30" as="geometry" />
        </mxCell>
        <mxCell id="nUbfjVZGUIIlSCX1xTMn-8" value="" style="shape=flexArrow;endArrow=classic;startArrow=classic;html=1;rounded=0;fontSize=9;width=10;endSize=3.225;startSize=3.225;entryX=1;entryY=1;entryDx=0;entryDy=0;" edge="1" parent="1">
          <mxGeometry width="100" height="100" relative="1" as="geometry">
            <mxPoint x="564.5" y="430" as="sourcePoint" />
            <mxPoint x="565.5" y="390" as="targetPoint" />
          </mxGeometry>
        </mxCell>
        <mxCell id="nUbfjVZGUIIlSCX1xTMn-12" value="Batch Data" style="rounded=0;whiteSpace=wrap;html=1;shadow=0;glass=1;fillStyle=hatch;fontSize=9;strokeWidth=1;fillColor=none;" vertex="1" parent="1">
          <mxGeometry x="690" y="160" width="100" height="30" as="geometry" />
        </mxCell>
        <mxCell id="nUbfjVZGUIIlSCX1xTMn-13" value="Script Data" style="rounded=0;whiteSpace=wrap;html=1;shadow=0;glass=1;fillStyle=hatch;fontSize=9;strokeWidth=1;fillColor=none;" vertex="1" parent="1">
          <mxGeometry x="690" y="190" width="100" height="30" as="geometry" />
        </mxCell>
        <mxCell id="nUbfjVZGUIIlSCX1xTMn-14" value="DBS" style="rounded=0;whiteSpace=wrap;html=1;shadow=0;glass=1;fillStyle=hatch;fontSize=9;strokeWidth=1;fillColor=none;" vertex="1" parent="1">
          <mxGeometry x="690" y="220" width="100" height="30" as="geometry" />
        </mxCell>
        <mxCell id="nUbfjVZGUIIlSCX1xTMn-15" value="Logs" style="rounded=0;whiteSpace=wrap;html=1;shadow=0;glass=1;fillStyle=hatch;fontSize=9;strokeWidth=1;fillColor=none;" vertex="1" parent="1">
          <mxGeometry x="690" y="250" width="100" height="30" as="geometry" />
        </mxCell>
        <mxCell id="nUbfjVZGUIIlSCX1xTMn-16" value="" style="rounded=0;whiteSpace=wrap;html=1;shadow=0;glass=1;fillStyle=hatch;fontSize=9;strokeWidth=1;fillColor=none;dashed=1;" vertex="1" parent="1">
          <mxGeometry x="680" y="150" width="120" height="140" as="geometry" />
        </mxCell>
        <mxCell id="nUbfjVZGUIIlSCX1xTMn-17" value="" style="shape=flexArrow;endArrow=classic;html=1;rounded=0;fontSize=9;exitX=0;exitY=0.5;exitDx=0;exitDy=0;" edge="1" parent="1" source="nUbfjVZGUIIlSCX1xTMn-16">
          <mxGeometry width="50" height="50" relative="1" as="geometry">
            <mxPoint x="680" y="219" as="sourcePoint" />
            <mxPoint x="630" y="219" as="targetPoint" />
          </mxGeometry>
        </mxCell>
      </root>
    </mxGraphModel>
  </diagram>
  <diagram id="O71FtKZjG6XON4SC_VDb" name="第 7 页">
    <mxGraphModel dx="1368" dy="828" grid="1" gridSize="10" guides="1" tooltips="1" connect="1" arrows="1" fold="1" page="1" pageScale="1" pageWidth="850" pageHeight="1100" background="#ffffff" math="0" shadow="0">
      <root>
        <mxCell id="0" />
        <mxCell id="1" parent="0" />
        <mxCell id="OM3mWN12vydsgOGSor-O-7" value="" style="rounded=0;whiteSpace=wrap;html=1;shadow=0;glass=1;dashed=1;fillStyle=hatch;fontSize=9;strokeWidth=1;fillColor=none;" vertex="1" parent="1">
          <mxGeometry x="110" y="200" width="150" height="50" as="geometry" />
        </mxCell>
        <mxCell id="huBdDSDh9HQ2lRkxL0YH-76" value="" style="rounded=0;whiteSpace=wrap;html=1;shadow=0;glass=1;fillStyle=hatch;fontSize=9;strokeWidth=1;fillColor=none;" vertex="1" parent="1">
          <mxGeometry x="110" y="590" width="360" height="60" as="geometry" />
        </mxCell>
        <mxCell id="huBdDSDh9HQ2lRkxL0YH-50" value="" style="rounded=0;whiteSpace=wrap;html=1;shadow=0;glass=1;dashed=1;fillStyle=hatch;fontSize=9;strokeWidth=1;fillColor=none;" vertex="1" parent="1">
          <mxGeometry x="285" y="300" width="465" height="80" as="geometry" />
        </mxCell>
        <mxCell id="huBdDSDh9HQ2lRkxL0YH-1" value="&lt;font style=&quot;font-size: 9px;&quot;&gt;VUE&lt;/font&gt;" style="rounded=0;whiteSpace=wrap;html=1;shadow=0;glass=1;fillStyle=hatch;fontSize=9;strokeWidth=1;fillColor=none;" vertex="1" parent="1">
          <mxGeometry x="300" y="335" width="140" height="30" as="geometry" />
        </mxCell>
        <mxCell id="huBdDSDh9HQ2lRkxL0YH-2" value="&lt;font style=&quot;font-size: 9px;&quot;&gt;NodeJS&lt;/font&gt;" style="rounded=0;whiteSpace=wrap;html=1;shadow=0;glass=1;fillStyle=hatch;fontSize=9;strokeWidth=1;fillColor=none;" vertex="1" parent="1">
          <mxGeometry x="451" y="335" width="140" height="30" as="geometry" />
        </mxCell>
        <mxCell id="huBdDSDh9HQ2lRkxL0YH-3" value="&lt;font style=&quot;font-size: 9px;&quot;&gt;ElementUI&amp;nbsp;&lt;/font&gt;" style="rounded=0;whiteSpace=wrap;html=1;shadow=0;glass=1;fillStyle=hatch;fontSize=9;strokeWidth=1;fillColor=none;" vertex="1" parent="1">
          <mxGeometry x="600" y="335" width="140" height="30" as="geometry" />
        </mxCell>
        <mxCell id="huBdDSDh9HQ2lRkxL0YH-28" value="Resource Pool" style="text;html=1;strokeColor=none;fillColor=none;align=center;verticalAlign=middle;whiteSpace=wrap;rounded=0;shadow=0;glass=1;fillStyle=hatch;fontSize=9;" vertex="1" parent="1">
          <mxGeometry x="350" y="605" width="120" height="30" as="geometry" />
        </mxCell>
        <mxCell id="huBdDSDh9HQ2lRkxL0YH-51" value="Web前端" style="text;html=1;strokeColor=none;fillColor=none;align=center;verticalAlign=middle;whiteSpace=wrap;rounded=0;shadow=0;glass=1;dashed=1;fillStyle=hatch;fontSize=9;" vertex="1" parent="1">
          <mxGeometry x="491" y="300" width="60" height="30" as="geometry" />
        </mxCell>
        <mxCell id="huBdDSDh9HQ2lRkxL0YH-52" value="" style="rounded=0;whiteSpace=wrap;html=1;shadow=0;glass=1;dashed=1;fillStyle=hatch;fontSize=9;strokeWidth=1;fillColor=none;" vertex="1" parent="1">
          <mxGeometry x="285" y="410" width="465" height="120" as="geometry" />
        </mxCell>
        <mxCell id="huBdDSDh9HQ2lRkxL0YH-53" value="MQ" style="rounded=0;whiteSpace=wrap;html=1;shadow=0;glass=1;fillStyle=hatch;fontSize=9;strokeWidth=1;fillColor=none;" vertex="1" parent="1">
          <mxGeometry x="300" y="448" width="140" height="30" as="geometry" />
        </mxCell>
        <mxCell id="huBdDSDh9HQ2lRkxL0YH-54" value="Redis" style="rounded=0;whiteSpace=wrap;html=1;shadow=0;glass=1;fillStyle=hatch;fontSize=9;strokeWidth=1;fillColor=none;" vertex="1" parent="1">
          <mxGeometry x="451" y="448" width="140" height="30" as="geometry" />
        </mxCell>
        <mxCell id="huBdDSDh9HQ2lRkxL0YH-55" value="ES" style="rounded=0;whiteSpace=wrap;html=1;shadow=0;glass=1;fillStyle=hatch;fontSize=9;strokeWidth=1;fillColor=none;" vertex="1" parent="1">
          <mxGeometry x="600" y="448" width="140" height="30" as="geometry" />
        </mxCell>
        <mxCell id="huBdDSDh9HQ2lRkxL0YH-56" value="Sub" style="rounded=0;whiteSpace=wrap;html=1;shadow=0;glass=1;fillStyle=hatch;fontSize=9;strokeWidth=1;fillColor=none;" vertex="1" parent="1">
          <mxGeometry x="300" y="490" width="140" height="30" as="geometry" />
        </mxCell>
        <mxCell id="huBdDSDh9HQ2lRkxL0YH-57" value="Agent" style="rounded=0;whiteSpace=wrap;html=1;shadow=0;glass=1;fillStyle=hatch;fontSize=9;strokeWidth=1;fillColor=none;" vertex="1" parent="1">
          <mxGeometry x="451" y="490" width="140" height="30" as="geometry" />
        </mxCell>
        <mxCell id="huBdDSDh9HQ2lRkxL0YH-58" value="CMDB" style="rounded=0;whiteSpace=wrap;html=1;shadow=0;glass=1;fillStyle=hatch;fontSize=9;strokeWidth=1;fillColor=none;" vertex="1" parent="1">
          <mxGeometry x="600" y="490" width="140" height="30" as="geometry" />
        </mxCell>
        <mxCell id="huBdDSDh9HQ2lRkxL0YH-59" value="后台管控" style="text;html=1;strokeColor=none;fillColor=none;align=center;verticalAlign=middle;whiteSpace=wrap;rounded=0;shadow=0;glass=1;dashed=1;fillStyle=hatch;fontSize=9;" vertex="1" parent="1">
          <mxGeometry x="491" y="415" width="60" height="30" as="geometry" />
        </mxCell>
        <mxCell id="huBdDSDh9HQ2lRkxL0YH-66" value="" style="group;fontSize=9;" vertex="1" connectable="0" parent="1">
          <mxGeometry x="760" y="300" width="150" height="230" as="geometry" />
        </mxCell>
        <mxCell id="huBdDSDh9HQ2lRkxL0YH-60" value="" style="rounded=0;whiteSpace=wrap;html=1;shadow=0;glass=1;dashed=1;fillStyle=hatch;fontSize=9;strokeWidth=1;fillColor=none;" vertex="1" parent="huBdDSDh9HQ2lRkxL0YH-66">
          <mxGeometry width="150" height="230" as="geometry" />
        </mxCell>
        <mxCell id="huBdDSDh9HQ2lRkxL0YH-61" value="Rule" style="rounded=0;whiteSpace=wrap;html=1;shadow=0;glass=1;fillStyle=hatch;fontSize=9;strokeWidth=1;fillColor=none;" vertex="1" parent="huBdDSDh9HQ2lRkxL0YH-66">
          <mxGeometry x="16.666666666666668" y="34" width="116.66666666666667" height="30" as="geometry" />
        </mxCell>
        <mxCell id="huBdDSDh9HQ2lRkxL0YH-62" value="Model" style="rounded=0;whiteSpace=wrap;html=1;shadow=0;glass=1;fillStyle=hatch;fontSize=9;strokeWidth=1;fillColor=none;" vertex="1" parent="huBdDSDh9HQ2lRkxL0YH-66">
          <mxGeometry x="16.666666666666668" y="73" width="116.66666666666667" height="30" as="geometry" />
        </mxCell>
        <mxCell id="huBdDSDh9HQ2lRkxL0YH-63" value="Analyzer" style="rounded=0;whiteSpace=wrap;html=1;shadow=0;glass=1;fillStyle=hatch;fontSize=9;strokeWidth=1;fillColor=none;" vertex="1" parent="huBdDSDh9HQ2lRkxL0YH-66">
          <mxGeometry x="16.666666666666668" y="112" width="116.66666666666667" height="30" as="geometry" />
        </mxCell>
        <mxCell id="huBdDSDh9HQ2lRkxL0YH-64" value="Tuner" style="rounded=0;whiteSpace=wrap;html=1;shadow=0;glass=1;fillStyle=hatch;fontSize=9;strokeWidth=1;fillColor=none;" vertex="1" parent="huBdDSDh9HQ2lRkxL0YH-66">
          <mxGeometry x="16.666666666666668" y="152" width="116.66666666666667" height="30" as="geometry" />
        </mxCell>
        <mxCell id="huBdDSDh9HQ2lRkxL0YH-65" value="Simlator" style="rounded=0;whiteSpace=wrap;html=1;shadow=0;glass=1;fillStyle=hatch;fontSize=9;strokeWidth=1;fillColor=none;" vertex="1" parent="huBdDSDh9HQ2lRkxL0YH-66">
          <mxGeometry x="16.666666666666668" y="190" width="116.66666666666667" height="30" as="geometry" />
        </mxCell>
        <mxCell id="huBdDSDh9HQ2lRkxL0YH-74" value="智能分析" style="text;html=1;strokeColor=none;fillColor=none;align=center;verticalAlign=middle;whiteSpace=wrap;rounded=0;shadow=0;glass=1;dashed=1;fillStyle=hatch;fontSize=9;" vertex="1" parent="huBdDSDh9HQ2lRkxL0YH-66">
          <mxGeometry x="45" width="60" height="30" as="geometry" />
        </mxCell>
        <mxCell id="huBdDSDh9HQ2lRkxL0YH-67" value="" style="group;fontSize=9;" vertex="1" connectable="0" parent="1">
          <mxGeometry x="110" y="300" width="150" height="230" as="geometry" />
        </mxCell>
        <mxCell id="huBdDSDh9HQ2lRkxL0YH-68" value="" style="rounded=0;whiteSpace=wrap;html=1;shadow=0;glass=1;dashed=1;fillStyle=hatch;fontSize=9;strokeWidth=1;fillColor=none;" vertex="1" parent="huBdDSDh9HQ2lRkxL0YH-67">
          <mxGeometry width="150" height="230" as="geometry" />
        </mxCell>
        <mxCell id="huBdDSDh9HQ2lRkxL0YH-69" value="Handler" style="rounded=0;whiteSpace=wrap;html=1;shadow=0;glass=1;fillStyle=hatch;fontSize=9;strokeWidth=1;fillColor=none;" vertex="1" parent="huBdDSDh9HQ2lRkxL0YH-67">
          <mxGeometry x="16.666666666666668" y="33" width="116.66666666666667" height="30" as="geometry" />
        </mxCell>
        <mxCell id="huBdDSDh9HQ2lRkxL0YH-70" value="Parser" style="rounded=0;whiteSpace=wrap;html=1;shadow=0;glass=1;fillStyle=hatch;fontSize=9;strokeWidth=1;fillColor=none;" vertex="1" parent="huBdDSDh9HQ2lRkxL0YH-67">
          <mxGeometry x="16.666666666666668" y="72" width="116.66666666666667" height="30" as="geometry" />
        </mxCell>
        <mxCell id="huBdDSDh9HQ2lRkxL0YH-71" value="Conn Pool" style="rounded=0;whiteSpace=wrap;html=1;shadow=0;glass=1;fillStyle=hatch;fontSize=9;strokeWidth=1;fillColor=none;" vertex="1" parent="huBdDSDh9HQ2lRkxL0YH-67">
          <mxGeometry x="16.666666666666668" y="111" width="116.66666666666667" height="30" as="geometry" />
        </mxCell>
        <mxCell id="huBdDSDh9HQ2lRkxL0YH-72" value="HA" style="rounded=0;whiteSpace=wrap;html=1;shadow=0;glass=1;fillStyle=hatch;fontSize=9;strokeWidth=1;fillColor=none;" vertex="1" parent="huBdDSDh9HQ2lRkxL0YH-67">
          <mxGeometry x="16.666666666666668" y="151" width="116.66666666666667" height="30" as="geometry" />
        </mxCell>
        <mxCell id="huBdDSDh9HQ2lRkxL0YH-73" value="GC" style="rounded=0;whiteSpace=wrap;html=1;shadow=0;glass=1;fillStyle=hatch;fontSize=9;strokeWidth=1;fillColor=none;" vertex="1" parent="huBdDSDh9HQ2lRkxL0YH-67">
          <mxGeometry x="16.666666666666668" y="190" width="116.66666666666667" height="30" as="geometry" />
        </mxCell>
        <mxCell id="huBdDSDh9HQ2lRkxL0YH-75" value="中间件模块" style="text;html=1;strokeColor=none;fillColor=none;align=center;verticalAlign=middle;whiteSpace=wrap;rounded=0;shadow=0;glass=1;dashed=1;fillStyle=hatch;fontSize=9;" vertex="1" parent="huBdDSDh9HQ2lRkxL0YH-67">
          <mxGeometry x="45" width="60" height="30" as="geometry" />
        </mxCell>
        <mxCell id="huBdDSDh9HQ2lRkxL0YH-77" value="Open API" style="rounded=0;whiteSpace=wrap;html=1;shadow=0;glass=1;fillStyle=hatch;fontSize=9;strokeWidth=1;fillColor=none;" vertex="1" parent="1">
          <mxGeometry x="110" y="540" width="800" height="30" as="geometry" />
        </mxCell>
        <mxCell id="huBdDSDh9HQ2lRkxL0YH-82" value="IaaS" style="rounded=0;whiteSpace=wrap;html=1;shadow=0;glass=1;fillStyle=hatch;fontSize=9;strokeWidth=1;fillColor=none;" vertex="1" parent="1">
          <mxGeometry x="490" y="590" width="120" height="60" as="geometry" />
        </mxCell>
        <mxCell id="huBdDSDh9HQ2lRkxL0YH-83" value="Oracle，Tidb，GreenPlum，Dameng" style="rounded=0;whiteSpace=wrap;html=1;shadow=0;glass=1;fillStyle=hatch;fontSize=9;strokeWidth=1;fillColor=none;" vertex="1" parent="1">
          <mxGeometry x="110" y="590" width="230" height="20" as="geometry" />
        </mxCell>
        <mxCell id="huBdDSDh9HQ2lRkxL0YH-84" value="RedHat，CentOS，VM，Docker，K8S" style="rounded=0;whiteSpace=wrap;html=1;shadow=0;glass=1;fillStyle=hatch;fontSize=9;strokeWidth=1;fillColor=none;" vertex="1" parent="1">
          <mxGeometry x="110" y="610" width="230" height="20" as="geometry" />
        </mxCell>
        <mxCell id="huBdDSDh9HQ2lRkxL0YH-85" value="CPU，Memory，Disk，Network" style="rounded=0;whiteSpace=wrap;html=1;shadow=0;glass=1;fillStyle=hatch;fontSize=9;strokeWidth=1;fillColor=none;" vertex="1" parent="1">
          <mxGeometry x="110" y="630" width="230" height="20" as="geometry" />
        </mxCell>
        <mxCell id="huBdDSDh9HQ2lRkxL0YH-86" value="PaaS" style="rounded=0;whiteSpace=wrap;html=1;shadow=0;glass=1;fillStyle=hatch;fontSize=9;strokeWidth=1;fillColor=none;" vertex="1" parent="1">
          <mxGeometry x="640" y="590" width="120" height="60" as="geometry" />
        </mxCell>
        <mxCell id="huBdDSDh9HQ2lRkxL0YH-87" value="SaaS" style="rounded=0;whiteSpace=wrap;html=1;shadow=0;glass=1;fillStyle=hatch;fontSize=9;strokeWidth=1;fillColor=none;" vertex="1" parent="1">
          <mxGeometry x="790" y="590" width="120" height="60" as="geometry" />
        </mxCell>
        <mxCell id="OM3mWN12vydsgOGSor-O-3" value="APP" style="rounded=0;whiteSpace=wrap;html=1;shadow=0;glass=1;fillStyle=hatch;fontSize=9;strokeWidth=1;fillColor=none;" vertex="1" parent="1">
          <mxGeometry x="190" y="210" width="60" height="30" as="geometry" />
        </mxCell>
        <mxCell id="OM3mWN12vydsgOGSor-O-4" value="Tools" style="rounded=0;whiteSpace=wrap;html=1;shadow=0;glass=1;fillStyle=hatch;fontSize=9;strokeWidth=1;fillColor=none;" vertex="1" parent="1">
          <mxGeometry x="120" y="210" width="60" height="30" as="geometry" />
        </mxCell>
        <mxCell id="OM3mWN12vydsgOGSor-O-10" style="edgeStyle=orthogonalEdgeStyle;rounded=0;orthogonalLoop=1;jettySize=auto;html=1;exitX=0;exitY=0.5;exitDx=0;exitDy=0;entryX=0;entryY=0.5;entryDx=0;entryDy=0;fontSize=9;" edge="1" parent="1" source="OM3mWN12vydsgOGSor-O-7" target="huBdDSDh9HQ2lRkxL0YH-83">
          <mxGeometry relative="1" as="geometry">
            <Array as="points">
              <mxPoint x="50" y="220" />
              <mxPoint x="50" y="600" />
            </Array>
          </mxGeometry>
        </mxCell>
        <mxCell id="OM3mWN12vydsgOGSor-O-11" style="edgeStyle=orthogonalEdgeStyle;rounded=0;orthogonalLoop=1;jettySize=auto;html=1;exitX=0.5;exitY=1;exitDx=0;exitDy=0;entryX=0.5;entryY=0;entryDx=0;entryDy=0;fontSize=9;" edge="1" parent="1" source="OM3mWN12vydsgOGSor-O-7" target="huBdDSDh9HQ2lRkxL0YH-75">
          <mxGeometry relative="1" as="geometry" />
        </mxCell>
        <mxCell id="zmIvzObCUWUFgAhhcLkz-5" style="edgeStyle=orthogonalEdgeStyle;rounded=0;orthogonalLoop=1;jettySize=auto;html=1;exitX=0.5;exitY=1;exitDx=0;exitDy=0;entryX=0.5;entryY=0;entryDx=0;entryDy=0;fontSize=9;" edge="1" parent="1" source="zmIvzObCUWUFgAhhcLkz-1" target="huBdDSDh9HQ2lRkxL0YH-51">
          <mxGeometry relative="1" as="geometry" />
        </mxCell>
        <mxCell id="zmIvzObCUWUFgAhhcLkz-1" value="" style="rounded=0;whiteSpace=wrap;html=1;shadow=0;glass=1;dashed=1;fillStyle=hatch;fontSize=9;strokeWidth=1;fillColor=none;" vertex="1" parent="1">
          <mxGeometry x="288" y="200" width="465" height="50" as="geometry" />
        </mxCell>
        <mxCell id="zmIvzObCUWUFgAhhcLkz-2" value="User" style="rounded=0;whiteSpace=wrap;html=1;shadow=0;glass=1;fillStyle=hatch;fontSize=9;strokeWidth=1;fillColor=none;" vertex="1" parent="1">
          <mxGeometry x="300" y="210" width="210" height="30" as="geometry" />
        </mxCell>
        <mxCell id="zmIvzObCUWUFgAhhcLkz-3" value="Admin" style="rounded=0;whiteSpace=wrap;html=1;shadow=0;glass=1;fillStyle=hatch;fontSize=9;strokeWidth=1;fillColor=none;" vertex="1" parent="1">
          <mxGeometry x="530" y="210" width="210" height="30" as="geometry" />
        </mxCell>
      </root>
    </mxGraphModel>
  </diagram>
</mxfile>
